G75*
G70*
%OFA0B0*%
%FSLAX24Y24*%
%IPPOS*%
%LPD*%
%AMOC8*
5,1,8,0,0,1.08239X$1,22.5*
%
%ADD10C,0.1261*%
%ADD11C,0.0600*%
%ADD12C,0.0680*%
%ADD13OC8,0.0600*%
%ADD14C,0.1080*%
%ADD15C,0.0905*%
%ADD16OC8,0.1320*%
%ADD17C,0.1320*%
%ADD18C,0.1265*%
%ADD19OC8,0.0710*%
%ADD20C,0.0710*%
D10*
X001601Y001601D03*
X001601Y020601D03*
X037601Y020601D03*
X037601Y001601D03*
D11*
X013861Y003101D02*
X013341Y003101D01*
X012861Y002101D02*
X012341Y002101D01*
X011861Y003101D02*
X011341Y003101D01*
X010361Y004101D02*
X009841Y004101D01*
X009841Y005101D02*
X010361Y005101D01*
X010361Y006101D02*
X009841Y006101D01*
X009841Y007101D02*
X010361Y007101D01*
X007361Y007101D02*
X006841Y007101D01*
X006841Y006101D02*
X007361Y006101D01*
X007361Y005101D02*
X006841Y005101D01*
X006841Y004101D02*
X007361Y004101D01*
X005101Y004841D02*
X005101Y005361D01*
X005101Y002361D02*
X005101Y001841D01*
X005121Y010101D02*
X004601Y010101D01*
X004601Y011101D02*
X005121Y011101D01*
X006341Y011101D02*
X006861Y011101D01*
X006861Y012101D02*
X006341Y012101D01*
X005121Y012101D02*
X004601Y012101D01*
X006341Y013101D02*
X006861Y013101D01*
X010341Y013101D02*
X010861Y013101D01*
X010861Y012101D02*
X010341Y012101D01*
X010341Y011101D02*
X010861Y011101D01*
X001601Y011101D02*
X001081Y011101D01*
X001081Y012101D02*
X001601Y012101D01*
X001601Y010101D02*
X001081Y010101D01*
X008341Y016601D02*
X008861Y016601D01*
X011341Y016601D02*
X011861Y016601D01*
D12*
X011101Y018301D02*
X011101Y018901D01*
X010101Y018901D02*
X010101Y018301D01*
X009101Y018301D02*
X009101Y018901D01*
X005601Y020301D02*
X005601Y020901D01*
X004601Y020901D02*
X004601Y020301D01*
X004601Y007401D02*
X004601Y006801D01*
X005601Y006801D02*
X005601Y007401D01*
D13*
X005601Y008601D03*
X002601Y008601D03*
X001601Y007101D03*
X001601Y006101D03*
X007601Y002101D03*
X009601Y002101D03*
X011601Y004101D03*
X013101Y005101D03*
X011601Y007101D03*
X013101Y008101D03*
X012601Y010101D03*
X008601Y010101D03*
X008601Y013101D03*
X008601Y015101D03*
X011601Y015101D03*
X012601Y013101D03*
X005601Y015101D03*
X001601Y015101D03*
X001601Y016101D03*
X005601Y018101D03*
D14*
X024101Y015201D02*
X025101Y015201D01*
X025101Y013201D02*
X024101Y013201D01*
X024101Y009001D02*
X025101Y009001D01*
X025101Y007001D02*
X024101Y007001D01*
X029101Y000876D02*
X030101Y000876D01*
X034101Y000876D02*
X035101Y000876D01*
X035101Y021325D02*
X034101Y021325D01*
X030101Y021325D02*
X029101Y021325D01*
D15*
X021513Y019101D02*
X020688Y019101D01*
X020688Y017101D02*
X021513Y017101D01*
X021513Y015101D02*
X020688Y015101D01*
X020688Y013101D02*
X021513Y013101D01*
X021513Y011101D02*
X020688Y011101D01*
X015513Y011101D02*
X014688Y011101D01*
X014688Y013101D02*
X015513Y013101D01*
X015513Y015101D02*
X014688Y015101D01*
X014688Y017101D02*
X015513Y017101D01*
X015513Y019101D02*
X014688Y019101D01*
D16*
X016601Y006101D03*
D17*
X019601Y006101D03*
D18*
X024101Y003693D02*
X024101Y002508D01*
X025601Y002508D02*
X025601Y003693D01*
X025601Y018508D02*
X025601Y019693D01*
X024101Y019693D02*
X024101Y018508D01*
D19*
X011101Y009101D03*
D20*
X011101Y008101D03*
M02*
