G75*
G70*
%OFA0B0*%
%FSLAX24Y24*%
%IPPOS*%
%LPD*%
%AMOC8*
5,1,8,0,0,1.08239X$1,22.5*
%
%ADD10C,0.0060*%
%ADD11C,0.0394*%
%ADD12C,0.0120*%
%ADD13C,0.0030*%
D10*
X036631Y005238D02*
X036738Y005344D01*
X036631Y005451D01*
X036738Y005558D01*
X037058Y005558D01*
X037058Y005775D02*
X036738Y005775D01*
X036631Y005882D01*
X036738Y005989D01*
X036631Y006096D01*
X036738Y006202D01*
X037058Y006202D01*
X037058Y006420D02*
X036738Y006420D01*
X036631Y006527D01*
X036738Y006633D01*
X036631Y006740D01*
X036738Y006847D01*
X037058Y006847D01*
X036738Y007064D02*
X036631Y007064D01*
X036631Y007171D01*
X036738Y007171D01*
X036738Y007064D01*
X036738Y007387D02*
X036631Y007493D01*
X036631Y007814D01*
X036951Y007814D01*
X037058Y007707D01*
X037058Y007493D01*
X036844Y007493D02*
X036844Y007814D01*
X036844Y008031D02*
X037058Y008245D01*
X037058Y008351D01*
X037058Y008568D02*
X037058Y008782D01*
X037165Y008675D02*
X036738Y008675D01*
X036631Y008782D01*
X036631Y008998D02*
X036631Y009211D01*
X036631Y009105D02*
X037058Y009105D01*
X037058Y008998D01*
X037271Y009105D02*
X037378Y009105D01*
X037631Y009133D02*
X037631Y008920D01*
X037631Y009027D02*
X038058Y009027D01*
X038058Y008920D01*
X038271Y009027D02*
X038378Y009027D01*
X037951Y008702D02*
X038058Y008596D01*
X038058Y008382D01*
X037951Y008275D01*
X037738Y008275D01*
X037631Y008382D01*
X037631Y008596D01*
X037738Y008702D01*
X037951Y008702D01*
X037738Y008058D02*
X037631Y007951D01*
X037631Y007738D01*
X037738Y007631D01*
X038165Y007631D01*
X038271Y007738D01*
X038271Y007951D01*
X038165Y008058D01*
X037058Y008031D02*
X036631Y008031D01*
X036844Y007493D02*
X036738Y007387D01*
X036951Y009428D02*
X036951Y009641D01*
X037165Y009534D02*
X036631Y009534D01*
X036738Y009857D02*
X036631Y009964D01*
X036631Y010284D01*
X036951Y010284D01*
X037058Y010178D01*
X037058Y009964D01*
X036844Y009964D02*
X036844Y010284D01*
X036738Y010502D02*
X036631Y010609D01*
X036631Y010929D01*
X036738Y011253D02*
X036631Y011360D01*
X036738Y011253D02*
X037165Y011253D01*
X037058Y011146D02*
X037058Y011360D01*
X036951Y011576D02*
X036738Y011576D01*
X036631Y011683D01*
X036631Y011896D01*
X036738Y012003D01*
X036951Y012003D01*
X037058Y011896D01*
X037058Y011683D01*
X036951Y011576D01*
X037631Y011605D02*
X037631Y011819D01*
X037631Y011712D02*
X038058Y011712D01*
X038058Y011605D01*
X038058Y011389D02*
X038058Y011282D01*
X037844Y011068D01*
X037631Y011068D02*
X038058Y011068D01*
X038165Y010851D02*
X037738Y010851D01*
X037631Y010744D01*
X037631Y010424D01*
X038271Y010424D01*
X038271Y010744D01*
X038165Y010851D01*
X037058Y010929D02*
X037058Y010609D01*
X036951Y010502D01*
X036738Y010502D01*
X036844Y009964D02*
X036738Y009857D01*
X037165Y009534D02*
X037271Y009641D01*
X037631Y009563D02*
X037631Y009350D01*
X037631Y009456D02*
X038271Y009456D01*
X038271Y009350D01*
X038271Y011712D02*
X038378Y011712D01*
X038058Y012035D02*
X037631Y012249D01*
X038058Y012462D01*
X037951Y012680D02*
X037738Y012680D01*
X037631Y012786D01*
X037631Y013000D01*
X037844Y013107D02*
X037844Y012680D01*
X037951Y012680D02*
X038058Y012786D01*
X038058Y013000D01*
X037951Y013107D01*
X037844Y013107D01*
X037844Y013324D02*
X038058Y013538D01*
X038058Y013644D01*
X038058Y013324D02*
X037631Y013324D01*
X037058Y013185D02*
X036524Y013185D01*
X036417Y013078D01*
X036417Y012971D01*
X036631Y012864D02*
X036631Y013185D01*
X036631Y013402D02*
X036631Y013509D01*
X036738Y013509D01*
X036738Y013402D01*
X036631Y013402D01*
X036738Y013724D02*
X036631Y013831D01*
X036631Y014045D01*
X036738Y014151D01*
X036951Y014151D01*
X037058Y014045D01*
X037058Y013831D01*
X036951Y013724D01*
X036738Y013724D01*
X036844Y014369D02*
X037058Y014582D01*
X037058Y014689D01*
X036951Y014906D02*
X036738Y014906D01*
X036631Y015013D01*
X036631Y015333D01*
X036524Y015333D02*
X037058Y015333D01*
X037058Y015013D01*
X036951Y014906D01*
X036417Y015120D02*
X036417Y015226D01*
X036524Y015333D01*
X036631Y015551D02*
X036631Y015657D01*
X036738Y015657D01*
X036738Y015551D01*
X036631Y015551D01*
X036738Y015873D02*
X036631Y015980D01*
X036631Y016300D01*
X036951Y016300D01*
X037058Y016193D01*
X037058Y015980D01*
X036844Y015980D02*
X036844Y016300D01*
X036738Y016517D02*
X036631Y016624D01*
X036631Y016944D01*
X037058Y016944D01*
X037058Y016517D02*
X036738Y016517D01*
X037631Y016544D02*
X037631Y016117D01*
X038058Y016544D01*
X038165Y016544D01*
X038271Y016437D01*
X038271Y016224D01*
X038165Y016117D01*
X037738Y015901D02*
X037631Y015901D01*
X037631Y015795D01*
X037738Y015795D01*
X037738Y015901D01*
X037631Y015577D02*
X037631Y015150D01*
X037631Y015364D02*
X038271Y015364D01*
X038058Y015150D01*
X037844Y014933D02*
X038271Y014933D01*
X037844Y014933D02*
X037631Y014719D01*
X037844Y014506D01*
X038271Y014506D01*
X037058Y014369D02*
X036631Y014369D01*
X036631Y012864D02*
X036738Y012758D01*
X037058Y012758D01*
X037058Y012541D02*
X037058Y012434D01*
X036844Y012221D01*
X036631Y012221D02*
X037058Y012221D01*
X036738Y015873D02*
X036844Y015980D01*
X036631Y005238D02*
X036738Y005131D01*
X037058Y005131D01*
D11*
X028273Y007101D02*
X028276Y007240D01*
X028287Y007378D01*
X028304Y007516D01*
X028327Y007653D01*
X028358Y007788D01*
X028395Y007922D01*
X028438Y008054D01*
X028488Y008183D01*
X028545Y008310D01*
X028607Y008434D01*
X028675Y008555D01*
X028750Y008672D01*
X028830Y008786D01*
X028915Y008895D01*
X029006Y009000D01*
X029101Y009101D01*
X029202Y009196D01*
X029307Y009287D01*
X029416Y009372D01*
X029530Y009452D01*
X029647Y009527D01*
X029768Y009595D01*
X029892Y009657D01*
X030019Y009714D01*
X030148Y009764D01*
X030280Y009807D01*
X030414Y009844D01*
X030549Y009875D01*
X030686Y009898D01*
X030824Y009915D01*
X030962Y009926D01*
X031101Y009929D01*
X031240Y009926D01*
X031378Y009915D01*
X031516Y009898D01*
X031653Y009875D01*
X031788Y009844D01*
X031922Y009807D01*
X032054Y009764D01*
X032183Y009714D01*
X032310Y009657D01*
X032434Y009595D01*
X032555Y009527D01*
X032672Y009452D01*
X032786Y009372D01*
X032895Y009287D01*
X033000Y009196D01*
X033101Y009101D01*
X033196Y009000D01*
X033287Y008895D01*
X033372Y008786D01*
X033452Y008672D01*
X033527Y008555D01*
X033595Y008434D01*
X033657Y008310D01*
X033714Y008183D01*
X033764Y008054D01*
X033807Y007922D01*
X033844Y007788D01*
X033875Y007653D01*
X033898Y007516D01*
X033915Y007378D01*
X033926Y007240D01*
X033929Y007101D01*
X033926Y006962D01*
X033915Y006824D01*
X033898Y006686D01*
X033875Y006549D01*
X033844Y006414D01*
X033807Y006280D01*
X033764Y006148D01*
X033714Y006019D01*
X033657Y005892D01*
X033595Y005768D01*
X033527Y005647D01*
X033452Y005530D01*
X033372Y005416D01*
X033287Y005307D01*
X033196Y005202D01*
X033101Y005101D01*
X033000Y005006D01*
X032895Y004915D01*
X032786Y004830D01*
X032672Y004750D01*
X032555Y004675D01*
X032434Y004607D01*
X032310Y004545D01*
X032183Y004488D01*
X032054Y004438D01*
X031922Y004395D01*
X031788Y004358D01*
X031653Y004327D01*
X031516Y004304D01*
X031378Y004287D01*
X031240Y004276D01*
X031101Y004273D01*
X030962Y004276D01*
X030824Y004287D01*
X030686Y004304D01*
X030549Y004327D01*
X030414Y004358D01*
X030280Y004395D01*
X030148Y004438D01*
X030019Y004488D01*
X029892Y004545D01*
X029768Y004607D01*
X029647Y004675D01*
X029530Y004750D01*
X029416Y004830D01*
X029307Y004915D01*
X029202Y005006D01*
X029101Y005101D01*
X029006Y005202D01*
X028915Y005307D01*
X028830Y005416D01*
X028750Y005530D01*
X028675Y005647D01*
X028607Y005768D01*
X028545Y005892D01*
X028488Y006019D01*
X028438Y006148D01*
X028395Y006280D01*
X028358Y006414D01*
X028327Y006549D01*
X028304Y006686D01*
X028287Y006824D01*
X028276Y006962D01*
X028273Y007101D01*
D12*
X029101Y007095D02*
X030101Y007095D01*
X030101Y007213D02*
X029101Y007213D01*
X029101Y007332D02*
X030101Y007332D01*
X030101Y007450D02*
X029101Y007450D01*
X029101Y007569D02*
X030101Y007569D01*
X030133Y007569D02*
X030633Y007569D01*
X030751Y007450D02*
X030251Y007450D01*
X030370Y007332D02*
X030870Y007332D01*
X030988Y007213D02*
X030488Y007213D01*
X030607Y007095D02*
X031107Y007095D01*
X031225Y006976D02*
X030725Y006976D01*
X030844Y006858D02*
X031344Y006858D01*
X031462Y006739D02*
X030962Y006739D01*
X031081Y006621D02*
X031581Y006621D01*
X031699Y006502D02*
X031199Y006502D01*
X031318Y006384D02*
X031818Y006384D01*
X031937Y006265D02*
X031437Y006265D01*
X031555Y006146D02*
X032055Y006146D01*
X032174Y006028D02*
X031674Y006028D01*
X031792Y005909D02*
X032292Y005909D01*
X032411Y005791D02*
X031911Y005791D01*
X032029Y005672D02*
X032529Y005672D01*
X032648Y005554D02*
X032148Y005554D01*
X032266Y005435D02*
X032766Y005435D01*
X032885Y005317D02*
X032385Y005317D01*
X032503Y005198D02*
X033003Y005198D01*
X033122Y005080D02*
X032622Y005080D01*
X032741Y004961D02*
X033241Y004961D01*
X033359Y004843D02*
X032859Y004843D01*
X032978Y004724D02*
X033478Y004724D01*
X033596Y004605D02*
X033096Y004605D01*
X033215Y004487D02*
X033715Y004487D01*
X033833Y004368D02*
X033333Y004368D01*
X033452Y004250D02*
X033952Y004250D01*
X034070Y004131D02*
X033570Y004131D01*
X033601Y004101D02*
X030101Y007601D01*
X030101Y006101D01*
X031101Y006101D01*
X031601Y005601D01*
X030101Y005601D01*
X030101Y004601D01*
X029101Y005101D01*
X029101Y009101D01*
X030101Y009601D01*
X030101Y008601D01*
X033601Y008601D01*
X033601Y008101D01*
X030101Y008101D01*
X034101Y004101D01*
X033601Y004101D01*
X031529Y005672D02*
X029101Y005672D01*
X029101Y005554D02*
X030101Y005554D01*
X030101Y005435D02*
X029101Y005435D01*
X029101Y005317D02*
X030101Y005317D01*
X030101Y005198D02*
X029101Y005198D01*
X029143Y005080D02*
X030101Y005080D01*
X030101Y004961D02*
X029380Y004961D01*
X029617Y004843D02*
X030101Y004843D01*
X030101Y004724D02*
X029854Y004724D01*
X030091Y004605D02*
X030101Y004605D01*
X029101Y005791D02*
X031411Y005791D01*
X031292Y005909D02*
X029101Y005909D01*
X029101Y006028D02*
X031174Y006028D01*
X030101Y006146D02*
X029101Y006146D01*
X029101Y006265D02*
X030101Y006265D01*
X030101Y006384D02*
X029101Y006384D01*
X029101Y006502D02*
X030101Y006502D01*
X030101Y006621D02*
X029101Y006621D01*
X029101Y006739D02*
X030101Y006739D01*
X030101Y006858D02*
X029101Y006858D01*
X029101Y006976D02*
X030101Y006976D01*
X030514Y007688D02*
X029101Y007688D01*
X029101Y007806D02*
X030395Y007806D01*
X030277Y007925D02*
X029101Y007925D01*
X029101Y008043D02*
X030158Y008043D01*
X030101Y008636D02*
X029101Y008636D01*
X029101Y008754D02*
X030101Y008754D01*
X030101Y008873D02*
X029101Y008873D01*
X029101Y008992D02*
X030101Y008992D01*
X030101Y009110D02*
X029119Y009110D01*
X029356Y009229D02*
X030101Y009229D01*
X030101Y009347D02*
X029594Y009347D01*
X029831Y009466D02*
X030101Y009466D01*
X030101Y009584D02*
X030068Y009584D01*
X029101Y008517D02*
X033601Y008517D01*
X033601Y008399D02*
X029101Y008399D01*
X029101Y008280D02*
X033601Y008280D01*
X033601Y008162D02*
X029101Y008162D01*
D13*
X017849Y011616D02*
X017849Y011809D01*
X017753Y011809D02*
X017704Y011809D01*
X017753Y011809D02*
X017849Y011713D01*
X017951Y011713D02*
X018144Y011713D01*
X018144Y011761D02*
X018096Y011809D01*
X017999Y011809D01*
X017951Y011761D01*
X017951Y011713D01*
X017999Y011616D02*
X018096Y011616D01*
X018144Y011664D01*
X018144Y011761D01*
X018245Y011809D02*
X018342Y011616D01*
X018439Y011809D01*
X018587Y011809D02*
X018587Y011616D01*
X018635Y011616D02*
X018538Y011616D01*
X018587Y011809D02*
X018635Y011809D01*
X018736Y011809D02*
X018784Y011809D01*
X018881Y011713D01*
X018881Y011809D02*
X018881Y011616D01*
X018982Y011616D02*
X019127Y011616D01*
X019175Y011664D01*
X019175Y011761D01*
X019127Y011809D01*
X018982Y011809D01*
X018982Y011906D02*
X018982Y011616D01*
X019275Y011616D02*
X019372Y011616D01*
X019323Y011616D02*
X019323Y011906D01*
X019372Y011906D01*
X019520Y011906D02*
X019520Y011954D01*
X019520Y011809D02*
X019520Y011616D01*
X019568Y011616D02*
X019471Y011616D01*
X019520Y011809D02*
X019568Y011809D01*
X019669Y011761D02*
X019718Y011809D01*
X019814Y011809D01*
X019863Y011761D01*
X019863Y011664D01*
X019814Y011616D01*
X019718Y011616D01*
X019669Y011664D01*
X019669Y011761D01*
X019964Y011809D02*
X020109Y011809D01*
X020157Y011761D01*
X020157Y011664D01*
X020109Y011616D01*
X019964Y011616D01*
X020257Y011616D02*
X020354Y011616D01*
X020305Y011616D02*
X020305Y011906D01*
X020354Y011906D01*
X020455Y011761D02*
X020503Y011809D01*
X020600Y011809D01*
X020600Y011713D02*
X020455Y011713D01*
X020455Y011761D02*
X020455Y011616D01*
X020600Y011616D01*
X020648Y011664D01*
X020600Y011713D01*
X020750Y011809D02*
X020895Y011809D01*
X020943Y011761D01*
X020943Y011664D01*
X020895Y011616D01*
X020750Y011616D01*
X021043Y011616D02*
X021140Y011616D01*
X021091Y011616D02*
X021091Y011809D01*
X021140Y011809D01*
X021241Y011809D02*
X021386Y011809D01*
X021434Y011761D01*
X021386Y011713D01*
X021289Y011713D01*
X021241Y011664D01*
X021289Y011616D01*
X021434Y011616D01*
X021535Y011616D02*
X021535Y011809D01*
X021535Y011616D02*
X021680Y011616D01*
X021729Y011664D01*
X021729Y011809D01*
X021830Y011761D02*
X021878Y011809D01*
X021927Y011761D01*
X021927Y011616D01*
X022023Y011616D02*
X022023Y011809D01*
X021975Y011809D01*
X021927Y011761D01*
X021830Y011761D02*
X021830Y011616D01*
X022122Y011616D02*
X022171Y011616D01*
X022171Y011664D01*
X022122Y011664D01*
X022122Y011616D01*
X022122Y011761D02*
X022171Y011761D01*
X022171Y011809D01*
X022122Y011809D01*
X022122Y011761D01*
X022272Y011809D02*
X022417Y011809D01*
X022465Y011761D01*
X022417Y011713D01*
X022320Y011713D01*
X022272Y011664D01*
X022320Y011616D01*
X022465Y011616D01*
X022565Y011616D02*
X022614Y011664D01*
X022614Y011858D01*
X022662Y011809D02*
X022565Y011809D01*
X022763Y011809D02*
X022908Y011809D01*
X022956Y011761D01*
X022956Y011664D01*
X022908Y011616D01*
X022763Y011616D01*
X023058Y011713D02*
X023251Y011713D01*
X023251Y011761D02*
X023203Y011809D01*
X023106Y011809D01*
X023058Y011761D01*
X023058Y011713D01*
X023106Y011616D02*
X023203Y011616D01*
X023251Y011664D01*
X023251Y011761D01*
X023351Y011809D02*
X023351Y011567D01*
X023399Y011519D01*
X023448Y011519D01*
X023549Y011664D02*
X023549Y011761D01*
X023597Y011809D01*
X023694Y011809D01*
X023742Y011761D01*
X023742Y011664D01*
X023694Y011616D01*
X023597Y011616D01*
X023549Y011664D01*
X023351Y011906D02*
X023351Y011954D01*
X023843Y011809D02*
X023891Y011809D01*
X023988Y011713D01*
X023988Y011809D02*
X023988Y011616D01*
X024089Y011664D02*
X024137Y011616D01*
X024282Y011616D01*
X024282Y011519D02*
X024282Y011809D01*
X024137Y011809D01*
X024089Y011761D01*
X024089Y011664D01*
X024384Y011713D02*
X024577Y011713D01*
X024577Y011809D02*
X024384Y011809D01*
X024678Y011809D02*
X024823Y011809D01*
X024872Y011761D01*
X024872Y011664D01*
X024823Y011616D01*
X024678Y011616D01*
X024678Y011906D01*
X025020Y011906D02*
X025020Y011954D01*
X025020Y011809D02*
X025020Y011616D01*
X025068Y011616D02*
X024971Y011616D01*
X025020Y011809D02*
X025068Y011809D01*
X025169Y011809D02*
X025266Y011713D01*
X025266Y011664D02*
X025266Y011616D01*
X025464Y011664D02*
X025512Y011616D01*
X025657Y011616D01*
X025657Y011519D02*
X025657Y011809D01*
X025512Y011809D01*
X025464Y011761D01*
X025464Y011664D01*
X025363Y011858D02*
X025314Y011906D01*
X025218Y011906D01*
X025169Y011858D01*
X025169Y011809D01*
X025759Y011761D02*
X025759Y011616D01*
X025759Y011761D02*
X025807Y011809D01*
X025904Y011809D01*
X025952Y011761D01*
X026053Y011761D02*
X026053Y011664D01*
X026102Y011616D01*
X026247Y011616D01*
X026247Y011519D02*
X026247Y011809D01*
X026102Y011809D01*
X026053Y011761D01*
X025952Y011906D02*
X025952Y011616D01*
X026346Y011616D02*
X026394Y011616D01*
X026394Y011664D01*
X026346Y011664D01*
X026346Y011616D01*
X026495Y011616D02*
X026495Y011809D01*
X026495Y011616D02*
X026640Y011616D01*
X026689Y011664D01*
X026689Y011809D01*
X026789Y011809D02*
X026934Y011713D01*
X026789Y011616D01*
X026934Y011616D02*
X026934Y011906D01*
X027035Y011761D02*
X027084Y011809D01*
X027180Y011809D01*
X027229Y011761D01*
X027229Y011664D01*
X027180Y011616D01*
X027084Y011616D01*
X027035Y011664D01*
X027035Y011761D01*
X027330Y011809D02*
X027475Y011809D01*
X027523Y011761D01*
X027523Y011664D01*
X027475Y011616D01*
X027330Y011616D01*
X027330Y011906D01*
X027625Y011906D02*
X027818Y011616D01*
X027919Y011616D02*
X027919Y011809D01*
X027919Y011616D02*
X028064Y011616D01*
X028113Y011664D01*
X028113Y011809D01*
X028214Y011761D02*
X028214Y011616D01*
X028359Y011616D01*
X028407Y011664D01*
X028359Y011713D01*
X028214Y011713D01*
X028214Y011761D02*
X028262Y011809D01*
X028359Y011809D01*
X028506Y011664D02*
X028506Y011616D01*
X028555Y011616D01*
X028555Y011664D01*
X028506Y011664D01*
X028656Y011616D02*
X028801Y011616D01*
X028849Y011664D01*
X028849Y011761D01*
X028801Y011809D01*
X028656Y011809D01*
X028656Y011567D01*
X028704Y011519D01*
X028753Y011519D01*
X029095Y011616D02*
X029095Y011809D01*
X029095Y011713D02*
X028998Y011809D01*
X028950Y011809D01*
X029196Y011761D02*
X029244Y011809D01*
X029341Y011809D01*
X029389Y011761D01*
X029389Y011664D01*
X029341Y011616D01*
X029244Y011616D01*
X029196Y011664D01*
X029196Y011761D01*
X029488Y011664D02*
X029488Y011616D01*
X029537Y011616D01*
X029537Y011664D01*
X029488Y011664D01*
X029638Y011616D02*
X029783Y011616D01*
X029831Y011664D01*
X029831Y011809D01*
X029932Y011809D02*
X029980Y011809D01*
X030077Y011713D01*
X030077Y011809D02*
X030077Y011616D01*
X030178Y011664D02*
X030178Y011761D01*
X030226Y011809D01*
X030323Y011809D01*
X030372Y011761D01*
X030372Y011664D01*
X030323Y011616D01*
X030226Y011616D01*
X030178Y011664D01*
X030471Y011616D02*
X030520Y011664D01*
X030520Y011858D01*
X030568Y011809D02*
X030471Y011809D01*
X030669Y011809D02*
X030814Y011809D01*
X030863Y011761D01*
X030863Y011664D01*
X030814Y011616D01*
X030669Y011616D01*
X030964Y011616D02*
X031109Y011616D01*
X031157Y011664D01*
X031109Y011713D01*
X030964Y011713D01*
X030964Y011761D02*
X030964Y011616D01*
X030964Y011761D02*
X031012Y011809D01*
X031109Y011809D01*
X031257Y011761D02*
X031354Y011761D01*
X031305Y011858D02*
X031305Y011616D01*
X031453Y011616D02*
X031550Y011616D01*
X031502Y011616D02*
X031502Y011809D01*
X031550Y011809D01*
X031650Y011809D02*
X031747Y011809D01*
X031698Y011858D02*
X031698Y011664D01*
X031650Y011616D01*
X031847Y011809D02*
X031895Y011809D01*
X031992Y011713D01*
X031992Y011809D02*
X031992Y011616D01*
X032093Y011616D02*
X032238Y011616D01*
X032287Y011664D01*
X032238Y011713D01*
X032093Y011713D01*
X032093Y011761D02*
X032093Y011616D01*
X032093Y011761D02*
X032142Y011809D01*
X032238Y011809D01*
X032386Y011664D02*
X032386Y011616D01*
X032434Y011616D01*
X032434Y011664D01*
X032386Y011664D01*
X032534Y011616D02*
X032630Y011616D01*
X032582Y011616D02*
X032582Y011809D01*
X032630Y011809D01*
X032731Y011809D02*
X032876Y011713D01*
X032731Y011616D01*
X032876Y011616D02*
X032876Y011906D01*
X033024Y011906D02*
X033024Y011954D01*
X033024Y011809D02*
X033024Y011616D01*
X033072Y011616D02*
X032976Y011616D01*
X033024Y011809D02*
X033072Y011809D01*
X033174Y011809D02*
X033174Y011664D01*
X033222Y011616D01*
X033270Y011664D01*
X033319Y011616D01*
X033367Y011664D01*
X033367Y011809D01*
X033468Y011906D02*
X033662Y011616D01*
X033956Y011616D02*
X033763Y011906D01*
X034055Y011809D02*
X034055Y011761D01*
X034104Y011761D01*
X034104Y011809D01*
X034055Y011809D01*
X034055Y011664D02*
X034055Y011616D01*
X034104Y011616D01*
X034104Y011664D01*
X034055Y011664D01*
X034205Y011664D02*
X034253Y011616D01*
X034398Y011616D01*
X034398Y011519D02*
X034398Y011809D01*
X034253Y011809D01*
X034205Y011761D01*
X034205Y011664D01*
X034498Y011616D02*
X034546Y011664D01*
X034546Y011858D01*
X034498Y011809D02*
X034595Y011809D01*
X034694Y011809D02*
X034791Y011809D01*
X034743Y011858D02*
X034743Y011664D01*
X034694Y011616D01*
X034892Y011616D02*
X034892Y011761D01*
X034941Y011809D01*
X035037Y011809D01*
X035086Y011761D01*
X035086Y011906D02*
X035086Y011616D01*
X035024Y012616D02*
X035086Y012677D01*
X035024Y012739D01*
X034839Y012739D01*
X034839Y012801D02*
X034839Y012616D01*
X035024Y012616D01*
X035024Y012863D02*
X034901Y012863D01*
X034839Y012801D01*
X034717Y012863D02*
X034594Y012863D01*
X034656Y012924D02*
X034656Y012677D01*
X034594Y012616D01*
X034472Y012616D02*
X034472Y012863D01*
X034349Y012863D02*
X034472Y012739D01*
X034349Y012863D02*
X034287Y012863D01*
X034165Y012801D02*
X034165Y012677D01*
X034103Y012616D01*
X033980Y012616D01*
X033918Y012677D01*
X033918Y012801D01*
X033980Y012863D01*
X034103Y012863D01*
X034165Y012801D01*
X033797Y012863D02*
X033797Y012492D01*
X033797Y012616D02*
X033612Y012616D01*
X033550Y012677D01*
X033550Y012801D01*
X033612Y012863D01*
X033797Y012863D01*
X033428Y012801D02*
X033367Y012863D01*
X033243Y012863D01*
X033182Y012801D01*
X033182Y012616D01*
X033060Y012677D02*
X032998Y012616D01*
X032813Y012616D01*
X032813Y012554D02*
X032875Y012492D01*
X032937Y012492D01*
X032813Y012554D02*
X032813Y012863D01*
X032692Y012924D02*
X032692Y012677D01*
X032630Y012616D01*
X032507Y012616D01*
X032445Y012677D01*
X032507Y012739D02*
X032507Y012863D01*
X032630Y012863D01*
X032630Y012739D01*
X032507Y012739D01*
X032445Y012801D01*
X032445Y012924D01*
X032507Y012986D01*
X032630Y012986D01*
X032692Y012924D01*
X032753Y013116D02*
X032753Y013486D01*
X032753Y013301D02*
X032506Y013301D01*
X032385Y013177D02*
X032323Y013239D01*
X032138Y013239D01*
X032138Y013301D02*
X032138Y013116D01*
X032323Y013116D01*
X032385Y013177D01*
X032506Y013116D02*
X032506Y013486D01*
X032323Y013363D02*
X032200Y013363D01*
X032138Y013301D01*
X032017Y013363D02*
X032017Y013116D01*
X032017Y013239D02*
X031893Y013363D01*
X031831Y013363D01*
X031710Y013363D02*
X031648Y013363D01*
X031586Y013301D01*
X031525Y013363D01*
X031463Y013301D01*
X031463Y013116D01*
X031341Y013116D02*
X031156Y013116D01*
X031095Y013177D01*
X031156Y013239D01*
X031280Y013239D01*
X031341Y013301D01*
X031280Y013363D01*
X031095Y013363D01*
X030973Y013363D02*
X030973Y013177D01*
X030911Y013116D01*
X030850Y013177D01*
X030788Y013116D01*
X030726Y013177D01*
X030726Y013363D01*
X030605Y013301D02*
X030543Y013363D01*
X030420Y013363D01*
X030358Y013301D01*
X030358Y013177D01*
X030420Y013116D01*
X030543Y013116D01*
X030605Y013177D01*
X030605Y013301D01*
X030236Y013239D02*
X030113Y013363D01*
X030051Y013363D01*
X029930Y013363D02*
X029806Y013363D01*
X029868Y013424D02*
X029868Y013177D01*
X029806Y013116D01*
X029684Y013116D02*
X029684Y013486D01*
X029622Y013363D02*
X029499Y013363D01*
X029437Y013301D01*
X029437Y013116D01*
X029684Y013301D02*
X029622Y013363D01*
X030236Y013363D02*
X030236Y013116D01*
X030114Y012924D02*
X030114Y012677D01*
X030052Y012616D01*
X029930Y012677D02*
X029868Y012616D01*
X029745Y012616D01*
X029683Y012677D01*
X029683Y012801D01*
X029745Y012863D01*
X029868Y012863D01*
X029930Y012801D01*
X029930Y012677D01*
X030052Y012863D02*
X030175Y012863D01*
X030297Y012863D02*
X030482Y012863D01*
X030544Y012801D01*
X030544Y012677D01*
X030482Y012616D01*
X030297Y012616D01*
X030665Y012616D02*
X030665Y012801D01*
X030727Y012863D01*
X030850Y012863D01*
X030850Y012739D02*
X030665Y012739D01*
X030665Y012616D02*
X030850Y012616D01*
X030912Y012677D01*
X030850Y012739D01*
X031034Y012801D02*
X031157Y012801D01*
X031096Y012924D02*
X031096Y012616D01*
X031279Y012616D02*
X031403Y012616D01*
X031341Y012616D02*
X031341Y012863D01*
X031403Y012863D01*
X031525Y012863D02*
X031648Y012863D01*
X031587Y012924D02*
X031587Y012677D01*
X031525Y012616D01*
X031770Y012863D02*
X031832Y012863D01*
X031955Y012739D01*
X032077Y012739D02*
X032262Y012739D01*
X032324Y012677D01*
X032262Y012616D01*
X032077Y012616D01*
X032077Y012801D01*
X032138Y012863D01*
X032262Y012863D01*
X031955Y012863D02*
X031955Y012616D01*
X031341Y012986D02*
X031341Y013048D01*
X031586Y013116D02*
X031586Y013301D01*
X031710Y013363D02*
X031710Y013116D01*
X031096Y012924D02*
X031034Y012986D01*
X029561Y012863D02*
X029561Y012616D01*
X029561Y012739D02*
X029438Y012863D01*
X029376Y012863D01*
X029254Y012863D02*
X029254Y012677D01*
X029193Y012616D01*
X029008Y012616D01*
X029008Y012554D02*
X029069Y012492D01*
X029131Y012492D01*
X029008Y012554D02*
X029008Y012863D01*
X028886Y012677D02*
X028886Y012616D01*
X028824Y012616D01*
X028824Y012677D01*
X028886Y012677D01*
X028702Y012677D02*
X028640Y012616D01*
X028517Y012616D01*
X028455Y012677D01*
X028455Y012801D01*
X028517Y012863D01*
X028640Y012863D01*
X028702Y012801D01*
X028702Y012677D01*
X028334Y012616D02*
X028334Y012863D01*
X028210Y012863D02*
X028149Y012863D01*
X028210Y012863D02*
X028334Y012739D01*
X028027Y012677D02*
X027965Y012616D01*
X027780Y012616D01*
X027780Y012554D02*
X027780Y012863D01*
X027965Y012863D01*
X028027Y012801D01*
X028027Y012677D01*
X027903Y012492D02*
X027842Y012492D01*
X027780Y012554D01*
X027659Y012616D02*
X027659Y012677D01*
X027597Y012677D01*
X027597Y012616D01*
X027659Y012616D01*
X027474Y012677D02*
X027413Y012616D01*
X027228Y012616D01*
X027228Y012801D01*
X027289Y012863D01*
X027413Y012863D01*
X027413Y012739D02*
X027228Y012739D01*
X027106Y012677D02*
X027044Y012616D01*
X026859Y012616D01*
X026859Y012863D01*
X027106Y012863D02*
X027106Y012677D01*
X027413Y012739D02*
X027474Y012677D01*
X029638Y011809D02*
X029638Y011567D01*
X029686Y011519D01*
X029735Y011519D01*
X031257Y011906D02*
X031305Y011858D01*
X031502Y011906D02*
X031502Y011954D01*
X032582Y011954D02*
X032582Y011906D01*
X033428Y012616D02*
X033428Y012986D01*
X033367Y013116D02*
X033244Y013116D01*
X033305Y013116D02*
X033305Y013486D01*
X033367Y013486D01*
X033550Y013363D02*
X033489Y013301D01*
X033489Y013239D01*
X033735Y013239D01*
X033735Y013177D02*
X033735Y013301D01*
X033674Y013363D01*
X033550Y013363D01*
X033550Y013116D02*
X033674Y013116D01*
X033735Y013177D01*
X033857Y013116D02*
X033981Y013116D01*
X033919Y013116D02*
X033919Y013363D01*
X033981Y013363D01*
X034102Y013301D02*
X034102Y013116D01*
X034102Y013301D02*
X034164Y013363D01*
X034349Y013363D01*
X034349Y013116D01*
X034471Y013116D02*
X034656Y013116D01*
X034717Y013177D01*
X034656Y013239D01*
X034471Y013239D01*
X034471Y013301D02*
X034471Y013116D01*
X034471Y013301D02*
X034532Y013363D01*
X034656Y013363D01*
X034839Y013424D02*
X034839Y013177D01*
X034901Y013116D01*
X035086Y013116D01*
X035086Y013486D01*
X034901Y013486D01*
X034839Y013424D01*
X034901Y014116D02*
X034839Y014177D01*
X034839Y014301D01*
X034901Y014363D01*
X035086Y014363D01*
X035086Y014486D02*
X035086Y014116D01*
X034901Y014116D01*
X034717Y014116D02*
X034717Y014363D01*
X034594Y014363D02*
X034532Y014363D01*
X034594Y014363D02*
X034717Y014239D01*
X034411Y014239D02*
X034164Y014239D01*
X034164Y014301D01*
X034225Y014363D01*
X034349Y014363D01*
X034411Y014301D01*
X034411Y014177D01*
X034349Y014116D01*
X034225Y014116D01*
X033981Y014177D02*
X033981Y014424D01*
X034042Y014363D02*
X033919Y014363D01*
X033797Y014363D02*
X033673Y014363D01*
X033735Y014424D02*
X033735Y014177D01*
X033673Y014116D01*
X033551Y014177D02*
X033551Y014424D01*
X033490Y014486D01*
X033366Y014486D01*
X033304Y014424D01*
X033304Y014301D01*
X033366Y014239D01*
X033366Y014363D01*
X033490Y014363D01*
X033490Y014239D01*
X033366Y014239D01*
X033304Y014177D02*
X033366Y014116D01*
X033490Y014116D01*
X033551Y014177D01*
X033183Y014177D02*
X033121Y014239D01*
X032936Y014239D01*
X032936Y014301D02*
X032936Y014116D01*
X033121Y014116D01*
X033183Y014177D01*
X033121Y014363D02*
X032998Y014363D01*
X032936Y014301D01*
X032815Y014363D02*
X032815Y014116D01*
X032815Y014239D02*
X032691Y014363D01*
X032629Y014363D01*
X032508Y014363D02*
X032384Y014363D01*
X032446Y014424D02*
X032446Y014177D01*
X032384Y014116D01*
X032262Y014116D02*
X032139Y014116D01*
X032201Y014116D02*
X032201Y014363D01*
X032262Y014363D01*
X032201Y014486D02*
X032201Y014548D01*
X032261Y014616D02*
X032199Y014677D01*
X032199Y014863D01*
X032078Y014863D02*
X031893Y014863D01*
X031831Y014801D01*
X031831Y014616D01*
X031710Y014616D02*
X031586Y014616D01*
X031648Y014616D02*
X031648Y014863D01*
X031710Y014863D01*
X031648Y014986D02*
X031648Y015048D01*
X031464Y014863D02*
X031279Y014863D01*
X031217Y014801D01*
X031217Y014616D01*
X031096Y014677D02*
X031034Y014616D01*
X030849Y014616D01*
X030849Y014554D02*
X030849Y014863D01*
X031034Y014863D01*
X031096Y014801D01*
X031096Y014677D01*
X030972Y014492D02*
X030911Y014492D01*
X030849Y014554D01*
X030973Y014424D02*
X030973Y014177D01*
X030911Y014116D01*
X030789Y014177D02*
X030789Y014301D01*
X030727Y014363D01*
X030604Y014363D01*
X030542Y014301D01*
X030542Y014177D01*
X030604Y014116D01*
X030727Y014116D01*
X030789Y014177D01*
X030911Y014363D02*
X031035Y014363D01*
X031156Y014363D02*
X031341Y014363D01*
X031403Y014301D01*
X031403Y014177D01*
X031341Y014116D01*
X031156Y014116D01*
X031524Y014116D02*
X031524Y014301D01*
X031586Y014363D01*
X031710Y014363D01*
X031710Y014239D02*
X031524Y014239D01*
X031524Y014116D02*
X031710Y014116D01*
X031771Y014177D01*
X031710Y014239D01*
X031893Y014301D02*
X032017Y014301D01*
X031955Y014424D02*
X031893Y014486D01*
X031955Y014424D02*
X031955Y014116D01*
X032078Y014616D02*
X032078Y014863D01*
X032323Y014677D02*
X032261Y014616D01*
X032323Y014677D02*
X032385Y014616D01*
X032446Y014677D01*
X032446Y014863D01*
X032568Y014801D02*
X032629Y014863D01*
X032753Y014863D01*
X032815Y014801D01*
X032815Y014677D01*
X032753Y014616D01*
X032629Y014616D01*
X032568Y014677D01*
X032568Y014801D01*
X032936Y014924D02*
X032998Y014986D01*
X033183Y014986D01*
X033183Y014616D01*
X032998Y014616D01*
X032936Y014677D01*
X032936Y014924D01*
X032937Y015492D02*
X032875Y015492D01*
X032813Y015554D01*
X032813Y015863D01*
X032998Y015863D01*
X033060Y015801D01*
X033060Y015677D01*
X032998Y015616D01*
X032813Y015616D01*
X032692Y015616D02*
X032692Y015986D01*
X032630Y015863D02*
X032507Y015863D01*
X032445Y015801D01*
X032445Y015616D01*
X032262Y015677D02*
X032262Y015924D01*
X032324Y015863D02*
X032200Y015863D01*
X032262Y015677D02*
X032200Y015616D01*
X031710Y015616D02*
X031463Y015863D01*
X031463Y015924D01*
X031525Y015986D01*
X031648Y015986D01*
X031710Y015924D01*
X031710Y015616D02*
X031463Y015616D01*
X031341Y015677D02*
X031095Y015924D01*
X031095Y015677D01*
X031156Y015616D01*
X031280Y015616D01*
X031341Y015677D01*
X031341Y015924D01*
X031280Y015986D01*
X031156Y015986D01*
X031095Y015924D01*
X030973Y015863D02*
X030850Y015986D01*
X030850Y015616D01*
X030973Y015616D02*
X030726Y015616D01*
X030605Y015616D02*
X030358Y015616D01*
X030481Y015616D02*
X030481Y015986D01*
X030605Y015863D01*
X031464Y014863D02*
X031464Y014616D01*
X030421Y014363D02*
X030421Y014116D01*
X030421Y014239D02*
X030297Y014363D01*
X030236Y014363D01*
X030114Y014363D02*
X030114Y014177D01*
X030052Y014116D01*
X029867Y014116D01*
X029867Y014054D02*
X029929Y013992D01*
X029990Y013992D01*
X029867Y014054D02*
X029867Y014363D01*
X029746Y014177D02*
X029684Y014177D01*
X029684Y014116D01*
X029746Y014116D01*
X029746Y014177D01*
X029561Y014177D02*
X029561Y014301D01*
X029500Y014363D01*
X029376Y014363D01*
X029315Y014301D01*
X029315Y014177D01*
X029376Y014116D01*
X029500Y014116D01*
X029561Y014177D01*
X029193Y014116D02*
X029193Y014363D01*
X029070Y014363D02*
X029008Y014363D01*
X029070Y014363D02*
X029193Y014239D01*
X028886Y014177D02*
X028825Y014116D01*
X028639Y014116D01*
X028639Y014054D02*
X028639Y014363D01*
X028825Y014363D01*
X028886Y014301D01*
X028886Y014177D01*
X028763Y013992D02*
X028701Y013992D01*
X028639Y014054D01*
X028518Y014116D02*
X028456Y014116D01*
X028456Y014177D01*
X028518Y014177D01*
X028518Y014116D01*
X028334Y014177D02*
X028272Y014239D01*
X028087Y014239D01*
X028087Y014301D02*
X028087Y014116D01*
X028272Y014116D01*
X028334Y014177D01*
X028272Y014363D02*
X028149Y014363D01*
X028087Y014301D01*
X027966Y014363D02*
X027966Y014177D01*
X027904Y014116D01*
X027719Y014116D01*
X027719Y014363D01*
X032630Y015863D02*
X032692Y015801D01*
X033182Y015616D02*
X033306Y015616D01*
X033244Y015616D02*
X033244Y015863D01*
X033306Y015863D01*
X033427Y015863D02*
X033489Y015863D01*
X033613Y015739D01*
X033613Y015616D02*
X033613Y015863D01*
X033734Y015863D02*
X033734Y015554D01*
X033796Y015492D01*
X033857Y015492D01*
X033919Y015616D02*
X033734Y015616D01*
X033919Y015616D02*
X033981Y015677D01*
X033981Y015863D01*
X034102Y015801D02*
X034102Y015677D01*
X034164Y015616D01*
X034349Y015616D01*
X034349Y015492D02*
X034349Y015863D01*
X034164Y015863D01*
X034102Y015801D01*
X034471Y015801D02*
X034471Y015677D01*
X034532Y015616D01*
X034656Y015616D01*
X034717Y015677D01*
X034717Y015801D01*
X034656Y015863D01*
X034532Y015863D01*
X034471Y015801D01*
X034839Y015924D02*
X034901Y015986D01*
X035024Y015986D01*
X035086Y015924D01*
X035086Y015677D01*
X035024Y015616D01*
X034901Y015616D01*
X034839Y015677D01*
X034901Y014986D02*
X034839Y014924D01*
X034839Y014863D01*
X034901Y014801D01*
X035086Y014801D01*
X035086Y014616D02*
X035086Y014986D01*
X034901Y014986D01*
X034901Y014801D02*
X034839Y014739D01*
X034839Y014677D01*
X034901Y014616D01*
X035086Y014616D01*
X034717Y014616D02*
X034717Y014863D01*
X034594Y014863D02*
X034532Y014863D01*
X034594Y014863D02*
X034717Y014739D01*
X034411Y014739D02*
X034164Y014739D01*
X034164Y014801D01*
X034225Y014863D01*
X034349Y014863D01*
X034411Y014801D01*
X034411Y014677D01*
X034349Y014616D01*
X034225Y014616D01*
X033981Y014677D02*
X033919Y014616D01*
X033981Y014677D02*
X033981Y014924D01*
X034042Y014863D02*
X033919Y014863D01*
X033797Y014863D02*
X033673Y014863D01*
X033735Y014924D02*
X033735Y014677D01*
X033673Y014616D01*
X033981Y014177D02*
X033919Y014116D01*
X033919Y013548D02*
X033919Y013486D01*
X033060Y012863D02*
X033060Y012677D01*
X033244Y015986D02*
X033244Y016048D01*
X031683Y017492D02*
X031683Y017863D01*
X031498Y017863D01*
X031436Y017801D01*
X031436Y017677D01*
X031498Y017616D01*
X031683Y017616D01*
X031804Y017616D02*
X031990Y017616D01*
X032051Y017677D01*
X031990Y017739D01*
X031804Y017739D01*
X031804Y017801D02*
X031804Y017616D01*
X031804Y017801D02*
X031866Y017863D01*
X031990Y017863D01*
X032173Y017863D02*
X032297Y017863D01*
X032235Y017924D02*
X032235Y017677D01*
X032173Y017616D01*
X032419Y017616D02*
X032481Y017616D01*
X032481Y017677D01*
X032419Y017677D01*
X032419Y017616D01*
X032602Y017677D02*
X032602Y017863D01*
X032602Y017677D02*
X032664Y017616D01*
X032726Y017677D01*
X032787Y017616D01*
X032849Y017677D01*
X032849Y017863D01*
X032971Y017863D02*
X032971Y017677D01*
X033032Y017616D01*
X033094Y017677D01*
X033156Y017616D01*
X033217Y017677D01*
X033217Y017863D01*
X033339Y017863D02*
X033339Y017677D01*
X033401Y017616D01*
X033462Y017677D01*
X033524Y017616D01*
X033586Y017677D01*
X033586Y017863D01*
X033489Y018616D02*
X033489Y018801D01*
X033550Y018863D01*
X033735Y018863D01*
X033735Y018616D01*
X033857Y018739D02*
X034104Y018739D01*
X034104Y018677D02*
X034104Y018801D01*
X034042Y018863D01*
X033919Y018863D01*
X033857Y018801D01*
X033857Y018739D01*
X033919Y018616D02*
X034042Y018616D01*
X034104Y018677D01*
X034225Y018616D02*
X034410Y018616D01*
X034472Y018677D01*
X034472Y018801D01*
X034410Y018863D01*
X034225Y018863D01*
X034656Y018863D02*
X034656Y018616D01*
X034717Y018616D02*
X034594Y018616D01*
X034839Y018616D02*
X035086Y018616D01*
X035086Y018986D01*
X034717Y018863D02*
X034656Y018863D01*
X034656Y018986D02*
X034656Y019048D01*
X033367Y018801D02*
X033305Y018863D01*
X033120Y018863D01*
X032999Y018801D02*
X032937Y018863D01*
X032814Y018863D01*
X032752Y018801D01*
X032752Y018739D01*
X032999Y018739D01*
X032999Y018677D02*
X032999Y018801D01*
X032999Y018677D02*
X032937Y018616D01*
X032814Y018616D01*
X032630Y018677D02*
X032569Y018616D01*
X032384Y018616D01*
X032384Y018986D01*
X032384Y018863D02*
X032569Y018863D01*
X032630Y018801D01*
X032630Y018677D01*
X033120Y018677D02*
X033182Y018616D01*
X033367Y018616D01*
X033305Y018739D02*
X033182Y018739D01*
X033120Y018677D01*
X033305Y018739D02*
X033367Y018801D01*
X031894Y018863D02*
X031894Y018677D01*
X031832Y018616D01*
X031647Y018616D01*
X031647Y018863D01*
X031526Y018863D02*
X031340Y018863D01*
X031279Y018801D01*
X031279Y018616D01*
X031157Y018677D02*
X031157Y018801D01*
X031096Y018863D01*
X030910Y018863D01*
X030910Y018986D02*
X030910Y018616D01*
X031096Y018616D01*
X031157Y018677D01*
X030789Y018677D02*
X030727Y018616D01*
X030604Y018616D01*
X030542Y018739D02*
X030789Y018739D01*
X030789Y018677D02*
X030789Y018801D01*
X030727Y018863D01*
X030604Y018863D01*
X030542Y018801D01*
X030542Y018739D01*
X030421Y018739D02*
X030297Y018863D01*
X030235Y018863D01*
X030421Y018863D02*
X030421Y018616D01*
X029745Y018863D02*
X029622Y018863D01*
X029684Y018924D02*
X029684Y018677D01*
X029622Y018616D01*
X029500Y018616D02*
X029500Y018986D01*
X029438Y018863D02*
X029315Y018863D01*
X029253Y018801D01*
X029253Y018616D01*
X029132Y018677D02*
X029070Y018616D01*
X028946Y018616D01*
X028885Y018739D02*
X029132Y018739D01*
X029132Y018677D02*
X029132Y018801D01*
X029070Y018863D01*
X028946Y018863D01*
X028885Y018801D01*
X028885Y018739D01*
X028395Y018986D02*
X028148Y018986D01*
X028272Y018986D02*
X028272Y018616D01*
X028027Y018616D02*
X028027Y018863D01*
X027903Y018986D01*
X027780Y018863D01*
X027780Y018616D01*
X027658Y018616D02*
X027658Y018986D01*
X027473Y018986D01*
X027411Y018924D01*
X027411Y018801D01*
X027473Y018739D01*
X027658Y018739D01*
X027780Y018801D02*
X028027Y018801D01*
X027290Y018739D02*
X027105Y018739D01*
X027043Y018801D01*
X027043Y018924D01*
X027105Y018986D01*
X027290Y018986D01*
X027290Y018616D01*
X027167Y018739D02*
X027043Y018616D01*
X026553Y018677D02*
X026553Y018924D01*
X026492Y018986D01*
X026368Y018986D01*
X026307Y018924D01*
X026307Y018677D01*
X026368Y018616D01*
X026492Y018616D01*
X026553Y018677D01*
X026185Y018616D02*
X026185Y018986D01*
X026185Y018801D02*
X025938Y018801D01*
X025938Y018986D02*
X025938Y018616D01*
X025817Y018616D02*
X025570Y018616D01*
X025817Y018616D02*
X025817Y018986D01*
X028428Y017616D02*
X028675Y017616D01*
X028675Y017986D01*
X028797Y017986D02*
X028797Y017616D01*
X028797Y017801D02*
X029043Y017801D01*
X029165Y017924D02*
X029227Y017986D01*
X029350Y017986D01*
X029412Y017924D01*
X029412Y017677D01*
X029350Y017616D01*
X029227Y017616D01*
X029165Y017677D01*
X029165Y017924D01*
X029043Y017986D02*
X029043Y017616D01*
X029533Y017986D02*
X029780Y017616D01*
X029902Y017616D02*
X030087Y017616D01*
X030148Y017677D01*
X030148Y017801D01*
X030087Y017863D01*
X029902Y017863D01*
X029902Y017554D01*
X029963Y017492D01*
X030025Y017492D01*
X030455Y017616D02*
X030455Y017863D01*
X030332Y017863D02*
X030270Y017863D01*
X030332Y017863D02*
X030455Y017739D01*
X030577Y017677D02*
X030577Y017801D01*
X030638Y017863D01*
X030762Y017863D01*
X030824Y017801D01*
X030824Y017677D01*
X030762Y017616D01*
X030638Y017616D01*
X030577Y017677D01*
X030946Y017677D02*
X030946Y017616D01*
X031008Y017616D01*
X031008Y017677D01*
X030946Y017677D01*
X031129Y017863D02*
X031191Y017863D01*
X031315Y017739D01*
X031315Y017616D02*
X031315Y017863D01*
X031526Y018616D02*
X031526Y018863D01*
X029500Y018801D02*
X029438Y018863D01*
X021091Y011954D02*
X021091Y011906D01*
X018587Y011954D02*
X018587Y011906D01*
M02*
