%
M48
M72
T01C0.0320
T02C0.0400
T03C0.0433
T04C0.0520
T05C0.0550
T06C0.0790
T07C0.1181
%
T01
X5101Y2101
X7601Y2101
X9601Y2101
X11601Y3101
X12601Y2101
X13601Y3101
X11601Y4101
X10101Y4101
X10101Y5101
X10101Y6101
X10101Y7101
X11601Y7101
X11101Y8101
X11101Y9101
X12601Y10101
X10601Y11101
X10601Y12101
X10601Y13101
X12601Y13101
X11601Y15101
X11601Y16601
X8601Y16601
X8601Y15101
X5601Y15101
X6601Y13101
X6601Y12101
X6601Y11101
X4601Y11101
X4601Y12101
X1601Y12101
X1601Y11101
X1601Y10101
X2601Y8601
X1601Y7101
X1601Y6101
X5101Y5101
X7101Y5101
X7101Y4101
X7101Y6101
X7101Y7101
X5601Y8601
X4601Y10101
X8601Y10101
X13101Y8101
X13101Y5101
X8601Y13101
X1601Y15101
X1601Y16101
X5601Y18101
T02
X9101Y18601
X10101Y18601
X11101Y18601
X5601Y20601
X4601Y20601
X4601Y7101
X5601Y7101
X16601Y6101
X19601Y6101
T03
X29601Y876
X34601Y876
X34601Y21325
X29601Y21325
T04
X24601Y15201
X24601Y13201
X24601Y9001
X24601Y7001
T05
X21101Y11101
X21101Y13101
X21101Y15101
X21101Y17101
X21101Y19101
X15101Y19101
X15101Y17101
X15101Y15101
X15101Y13101
X15101Y11101
T06
X24101Y19101
X25601Y19101
X25601Y3101
X24101Y3101
T07
X1601Y1601
X1601Y20601
X37601Y20601
X37601Y1601
M30
