%
M48
M72
T01C0.0320
T02C0.0390
T03C0.0400
T04C0.0433
T05C0.0520
T06C0.0550
T07C0.0790
T08C0.1000
T09C0.1181
%
T01
X4101Y3601
X5101Y3601
X6101Y3601
X7101Y3601
X9101Y4101
X10101Y3101
X11101Y4101
X12601Y3101
X14101Y4101
X15101Y3101
X16101Y4101
X19101Y3101
X19851Y2601
X19101Y2101
X12601Y6101
X12101Y7601
X10101Y7601
X11101Y9101
X11101Y10101
X13101Y11101
X15101Y11101
X14101Y9101
X8101Y10101
X7101Y10101
X6101Y10101
X6101Y9101
X7101Y8101
X7101Y6601
X6101Y6601
X5101Y6601
X4101Y6601
X2101Y7101
X2101Y8101
X3101Y9101
X3101Y10101
X4101Y8101
X7101Y13101
X8101Y15101
X11101Y15101
X12101Y17101
X13101Y18351
X13601Y19101
X12601Y19101
X11101Y19101
X11101Y20101
X8101Y20101
X8101Y19101
X6601Y19101
X5601Y19101
X6101Y18351
X2101Y17101
X2101Y16101
X15101Y17101
T02
X12101Y14101
X11101Y14101
X10101Y14101
X9101Y14101
X9101Y11101
X10101Y11101
X11101Y11101
X12101Y11101
T03
X4101Y11101
X3101Y11101
X3101Y12101
X3101Y13101
X4101Y13101
X4101Y12101
X9101Y5101
X10101Y5101
X14101Y5101
X15101Y5101
X16101Y5101
X20101Y7101
X23101Y7101
X6101Y2101
X5101Y2101
X8601Y21101
X9601Y21101
X10601Y21101
T04
X11101Y18101
X8101Y18101
X31601Y22825
X36101Y22825
X36101Y2376
X31601Y2376
T05
X27101Y8501
X27101Y10501
X27101Y14701
X27101Y16701
T06
X24101Y16101
X24101Y18101
X24101Y20101
X24101Y22101
X18101Y22101
X18101Y20101
X18101Y18101
X18101Y16101
X18101Y14101
X24101Y14101
T07
X26101Y22101
X28101Y22101
X28101Y3101
X26101Y3101
T08
X14601Y22401
X4601Y22401
T09
X1601Y1601
X1601Y23601
X37601Y23601
X37601Y1601
M30
