G75*
G70*
%OFA0B0*%
%FSLAX24Y24*%
%IPPOS*%
%LPD*%
%AMOC8*
5,1,8,0,0,1.08239X$1,22.5*
%
%ADD10C,0.0060*%
%ADD11C,0.0394*%
%ADD12C,0.0120*%
%ADD13C,0.0030*%
%ADD14C,0.0040*%
%ADD15C,0.0100*%
D10*
X036417Y013971D02*
X036417Y014078D01*
X036524Y014185D01*
X037058Y014185D01*
X036738Y014402D02*
X036738Y014509D01*
X036631Y014509D01*
X036631Y014402D01*
X036738Y014402D01*
X036631Y014185D02*
X036631Y013864D01*
X036738Y013758D01*
X037058Y013758D01*
X037058Y013541D02*
X037058Y013434D01*
X036844Y013221D01*
X036631Y013221D02*
X037058Y013221D01*
X036951Y013003D02*
X036738Y013003D01*
X036631Y012896D01*
X036631Y012683D01*
X036738Y012576D01*
X036951Y012576D01*
X037058Y012683D01*
X037058Y012896D01*
X036951Y013003D01*
X037631Y013000D02*
X037631Y012786D01*
X037738Y012680D01*
X037951Y012680D01*
X038058Y012786D01*
X038058Y013000D01*
X037951Y013107D01*
X037844Y013107D01*
X037844Y012680D01*
X038058Y012462D02*
X037631Y012249D01*
X038058Y012035D01*
X038058Y011712D02*
X037631Y011712D01*
X037631Y011605D02*
X037631Y011819D01*
X037058Y011929D02*
X037058Y011609D01*
X036951Y011502D01*
X036738Y011502D01*
X036631Y011609D01*
X036631Y011929D01*
X036738Y012253D02*
X036631Y012360D01*
X036738Y012253D02*
X037165Y012253D01*
X037058Y012146D02*
X037058Y012360D01*
X037631Y013324D02*
X038058Y013324D01*
X038058Y013538D02*
X038058Y013644D01*
X038058Y013538D02*
X037844Y013324D01*
X037844Y014506D02*
X037631Y014719D01*
X037844Y014933D01*
X038271Y014933D01*
X038165Y015150D02*
X038271Y015257D01*
X038271Y015470D01*
X038165Y015577D01*
X038058Y015577D01*
X037631Y015150D01*
X037631Y015577D01*
X037631Y015795D02*
X037631Y015901D01*
X037738Y015901D01*
X037738Y015795D01*
X037631Y015795D01*
X037738Y016117D02*
X038165Y016544D01*
X037738Y016544D01*
X037631Y016437D01*
X037631Y016224D01*
X037738Y016117D01*
X038165Y016117D01*
X038271Y016224D01*
X038271Y016437D01*
X038165Y016544D01*
X037058Y016333D02*
X037058Y016013D01*
X036951Y015906D01*
X036738Y015906D01*
X036631Y016013D01*
X036631Y016333D01*
X036524Y016333D02*
X037058Y016333D01*
X036738Y016551D02*
X036738Y016657D01*
X036631Y016657D01*
X036631Y016551D01*
X036738Y016551D01*
X036524Y016333D02*
X036417Y016226D01*
X036417Y016120D01*
X037058Y015689D02*
X037058Y015582D01*
X036844Y015369D01*
X036631Y015369D02*
X037058Y015369D01*
X036951Y015151D02*
X037058Y015045D01*
X037058Y014831D01*
X036951Y014724D01*
X036738Y014724D01*
X036631Y014831D01*
X036631Y015045D01*
X036738Y015151D01*
X036951Y015151D01*
X037844Y014506D02*
X038271Y014506D01*
X036738Y016873D02*
X036844Y016980D01*
X036844Y017300D01*
X036951Y017300D02*
X036631Y017300D01*
X036631Y016980D01*
X036738Y016873D01*
X037058Y016980D02*
X037058Y017193D01*
X036951Y017300D01*
X037058Y017517D02*
X036738Y017517D01*
X036631Y017624D01*
X036631Y017944D01*
X037058Y017944D01*
X038058Y011712D02*
X038058Y011605D01*
X038058Y011389D02*
X038058Y011282D01*
X037844Y011068D01*
X037631Y011068D02*
X038058Y011068D01*
X038165Y010851D02*
X038271Y010744D01*
X038271Y010424D01*
X037631Y010424D01*
X037631Y010744D01*
X037738Y010851D01*
X038165Y010851D01*
X037271Y010641D02*
X037165Y010534D01*
X036631Y010534D01*
X036631Y010211D02*
X036631Y009998D01*
X036631Y010105D02*
X037058Y010105D01*
X037058Y009998D01*
X037058Y009782D02*
X037058Y009568D01*
X037165Y009675D02*
X036738Y009675D01*
X036631Y009782D01*
X037058Y009351D02*
X037058Y009245D01*
X036844Y009031D01*
X036631Y009031D02*
X037058Y009031D01*
X036951Y008814D02*
X036631Y008814D01*
X036631Y008493D01*
X036738Y008387D01*
X036844Y008493D01*
X036844Y008814D01*
X036951Y008814D02*
X037058Y008707D01*
X037058Y008493D01*
X036738Y008171D02*
X036631Y008171D01*
X036631Y008064D01*
X036738Y008064D01*
X036738Y008171D01*
X036738Y007847D02*
X037058Y007847D01*
X036738Y007847D02*
X036631Y007740D01*
X036738Y007633D01*
X036631Y007527D01*
X036738Y007420D01*
X037058Y007420D01*
X037058Y007202D02*
X036738Y007202D01*
X036631Y007096D01*
X036738Y006989D01*
X036631Y006882D01*
X036738Y006775D01*
X037058Y006775D01*
X037058Y006558D02*
X036738Y006558D01*
X036631Y006451D01*
X036738Y006344D01*
X036631Y006238D01*
X036738Y006131D01*
X037058Y006131D01*
X037738Y007631D02*
X037631Y007738D01*
X037631Y007951D01*
X037738Y008058D01*
X037738Y008275D02*
X037631Y008382D01*
X037631Y008596D01*
X037738Y008702D01*
X037951Y008702D01*
X038058Y008596D01*
X038058Y008382D01*
X037951Y008275D01*
X037738Y008275D01*
X038165Y008058D02*
X038271Y007951D01*
X038271Y007738D01*
X038165Y007631D01*
X037738Y007631D01*
X037631Y008920D02*
X037631Y009133D01*
X037631Y009027D02*
X038058Y009027D01*
X038058Y008920D01*
X038271Y009027D02*
X038378Y009027D01*
X038271Y009350D02*
X038271Y009456D01*
X037631Y009456D01*
X037631Y009350D02*
X037631Y009563D01*
X037378Y010105D02*
X037271Y010105D01*
X036951Y010428D02*
X036951Y010641D01*
X036738Y010857D02*
X036844Y010964D01*
X036844Y011284D01*
X036951Y011284D02*
X036631Y011284D01*
X036631Y010964D01*
X036738Y010857D01*
X037058Y010964D02*
X037058Y011178D01*
X036951Y011284D01*
X038271Y011712D02*
X038378Y011712D01*
D11*
X029273Y006351D02*
X029276Y006490D01*
X029287Y006628D01*
X029304Y006766D01*
X029327Y006903D01*
X029358Y007038D01*
X029395Y007172D01*
X029438Y007304D01*
X029488Y007433D01*
X029545Y007560D01*
X029607Y007684D01*
X029675Y007805D01*
X029750Y007922D01*
X029830Y008036D01*
X029915Y008145D01*
X030006Y008250D01*
X030101Y008351D01*
X030202Y008446D01*
X030307Y008537D01*
X030416Y008622D01*
X030530Y008702D01*
X030647Y008777D01*
X030768Y008845D01*
X030892Y008907D01*
X031019Y008964D01*
X031148Y009014D01*
X031280Y009057D01*
X031414Y009094D01*
X031549Y009125D01*
X031686Y009148D01*
X031824Y009165D01*
X031962Y009176D01*
X032101Y009179D01*
X032240Y009176D01*
X032378Y009165D01*
X032516Y009148D01*
X032653Y009125D01*
X032788Y009094D01*
X032922Y009057D01*
X033054Y009014D01*
X033183Y008964D01*
X033310Y008907D01*
X033434Y008845D01*
X033555Y008777D01*
X033672Y008702D01*
X033786Y008622D01*
X033895Y008537D01*
X034000Y008446D01*
X034101Y008351D01*
X034196Y008250D01*
X034287Y008145D01*
X034372Y008036D01*
X034452Y007922D01*
X034527Y007805D01*
X034595Y007684D01*
X034657Y007560D01*
X034714Y007433D01*
X034764Y007304D01*
X034807Y007172D01*
X034844Y007038D01*
X034875Y006903D01*
X034898Y006766D01*
X034915Y006628D01*
X034926Y006490D01*
X034929Y006351D01*
X034926Y006212D01*
X034915Y006074D01*
X034898Y005936D01*
X034875Y005799D01*
X034844Y005664D01*
X034807Y005530D01*
X034764Y005398D01*
X034714Y005269D01*
X034657Y005142D01*
X034595Y005018D01*
X034527Y004897D01*
X034452Y004780D01*
X034372Y004666D01*
X034287Y004557D01*
X034196Y004452D01*
X034101Y004351D01*
X034000Y004256D01*
X033895Y004165D01*
X033786Y004080D01*
X033672Y004000D01*
X033555Y003925D01*
X033434Y003857D01*
X033310Y003795D01*
X033183Y003738D01*
X033054Y003688D01*
X032922Y003645D01*
X032788Y003608D01*
X032653Y003577D01*
X032516Y003554D01*
X032378Y003537D01*
X032240Y003526D01*
X032101Y003523D01*
X031962Y003526D01*
X031824Y003537D01*
X031686Y003554D01*
X031549Y003577D01*
X031414Y003608D01*
X031280Y003645D01*
X031148Y003688D01*
X031019Y003738D01*
X030892Y003795D01*
X030768Y003857D01*
X030647Y003925D01*
X030530Y004000D01*
X030416Y004080D01*
X030307Y004165D01*
X030202Y004256D01*
X030101Y004351D01*
X030006Y004452D01*
X029915Y004557D01*
X029830Y004666D01*
X029750Y004780D01*
X029675Y004897D01*
X029607Y005018D01*
X029545Y005142D01*
X029488Y005269D01*
X029438Y005398D01*
X029395Y005530D01*
X029358Y005664D01*
X029327Y005799D01*
X029304Y005936D01*
X029287Y006074D01*
X029276Y006212D01*
X029273Y006351D01*
D12*
X030101Y006384D02*
X031101Y006384D01*
X031101Y006502D02*
X030101Y006502D01*
X030101Y006621D02*
X031101Y006621D01*
X031101Y006739D02*
X030101Y006739D01*
X030101Y006858D02*
X031594Y006858D01*
X031475Y006976D02*
X030101Y006976D01*
X030101Y007095D02*
X031357Y007095D01*
X031238Y007213D02*
X030101Y007213D01*
X030101Y007332D02*
X031120Y007332D01*
X031101Y007351D02*
X035101Y003351D01*
X034601Y003351D01*
X031101Y006851D01*
X031101Y005351D01*
X032101Y005351D01*
X032601Y004851D01*
X031101Y004851D01*
X031101Y003851D01*
X030101Y004351D01*
X030101Y008351D01*
X031101Y008851D01*
X031101Y007851D01*
X034601Y007851D01*
X034601Y007351D01*
X031101Y007351D01*
X031101Y007925D02*
X030101Y007925D01*
X030101Y008043D02*
X031101Y008043D01*
X031101Y008162D02*
X030101Y008162D01*
X030101Y008280D02*
X031101Y008280D01*
X031101Y008399D02*
X030197Y008399D01*
X030434Y008517D02*
X031101Y008517D01*
X031101Y008636D02*
X030671Y008636D01*
X030908Y008754D02*
X031101Y008754D01*
X030101Y007806D02*
X034601Y007806D01*
X034601Y007688D02*
X030101Y007688D01*
X030101Y007569D02*
X034601Y007569D01*
X034601Y007450D02*
X030101Y007450D01*
X031212Y006739D02*
X031712Y006739D01*
X031831Y006621D02*
X031331Y006621D01*
X031449Y006502D02*
X031949Y006502D01*
X032068Y006384D02*
X031568Y006384D01*
X031687Y006265D02*
X032187Y006265D01*
X032305Y006146D02*
X031805Y006146D01*
X031924Y006028D02*
X032424Y006028D01*
X032542Y005909D02*
X032042Y005909D01*
X032161Y005791D02*
X032661Y005791D01*
X032779Y005672D02*
X032279Y005672D01*
X032398Y005554D02*
X032898Y005554D01*
X033016Y005435D02*
X032516Y005435D01*
X032635Y005317D02*
X033135Y005317D01*
X033253Y005198D02*
X032753Y005198D01*
X032872Y005080D02*
X033372Y005080D01*
X033491Y004961D02*
X032991Y004961D01*
X033109Y004843D02*
X033609Y004843D01*
X033728Y004724D02*
X033228Y004724D01*
X033346Y004605D02*
X033846Y004605D01*
X033965Y004487D02*
X033465Y004487D01*
X033583Y004368D02*
X034083Y004368D01*
X034202Y004250D02*
X033702Y004250D01*
X033820Y004131D02*
X034320Y004131D01*
X034439Y004013D02*
X033939Y004013D01*
X034057Y003894D02*
X034557Y003894D01*
X034676Y003776D02*
X034176Y003776D01*
X034294Y003657D02*
X034794Y003657D01*
X034913Y003539D02*
X034413Y003539D01*
X034532Y003420D02*
X035032Y003420D01*
X032491Y004961D02*
X030101Y004961D01*
X030101Y004843D02*
X031101Y004843D01*
X031101Y004724D02*
X030101Y004724D01*
X030101Y004605D02*
X031101Y004605D01*
X031101Y004487D02*
X030101Y004487D01*
X030101Y004368D02*
X031101Y004368D01*
X031101Y004250D02*
X030303Y004250D01*
X030540Y004131D02*
X031101Y004131D01*
X031101Y004013D02*
X030777Y004013D01*
X031014Y003894D02*
X031101Y003894D01*
X030101Y005080D02*
X032372Y005080D01*
X032253Y005198D02*
X030101Y005198D01*
X030101Y005317D02*
X032135Y005317D01*
X031101Y005435D02*
X030101Y005435D01*
X030101Y005554D02*
X031101Y005554D01*
X031101Y005672D02*
X030101Y005672D01*
X030101Y005791D02*
X031101Y005791D01*
X031101Y005909D02*
X030101Y005909D01*
X030101Y006028D02*
X031101Y006028D01*
X031101Y006146D02*
X030101Y006146D01*
X030101Y006265D02*
X031101Y006265D01*
D13*
X029631Y011492D02*
X029569Y011492D01*
X029508Y011554D01*
X029508Y011863D01*
X029386Y011677D02*
X029324Y011677D01*
X029324Y011616D01*
X029386Y011616D01*
X029386Y011677D01*
X029508Y011616D02*
X029693Y011616D01*
X029754Y011677D01*
X029754Y011863D01*
X029876Y011863D02*
X029938Y011863D01*
X030061Y011739D01*
X030061Y011616D02*
X030061Y011863D01*
X030183Y011801D02*
X030245Y011863D01*
X030368Y011863D01*
X030430Y011801D01*
X030430Y011677D01*
X030368Y011616D01*
X030245Y011616D01*
X030183Y011677D01*
X030183Y011801D01*
X030552Y011863D02*
X030675Y011863D01*
X030614Y011924D02*
X030614Y011677D01*
X030552Y011616D01*
X030797Y011616D02*
X030982Y011616D01*
X031044Y011677D01*
X031044Y011801D01*
X030982Y011863D01*
X030797Y011863D01*
X031165Y011801D02*
X031165Y011616D01*
X031350Y011616D01*
X031412Y011677D01*
X031350Y011739D01*
X031165Y011739D01*
X031165Y011801D02*
X031227Y011863D01*
X031350Y011863D01*
X031534Y011801D02*
X031657Y011801D01*
X031596Y011924D02*
X031596Y011616D01*
X031779Y011616D02*
X031903Y011616D01*
X031841Y011616D02*
X031841Y011863D01*
X031903Y011863D01*
X032025Y011863D02*
X032148Y011863D01*
X032087Y011924D02*
X032087Y011677D01*
X032025Y011616D01*
X032270Y011863D02*
X032332Y011863D01*
X032455Y011739D01*
X032577Y011739D02*
X032762Y011739D01*
X032824Y011677D01*
X032762Y011616D01*
X032577Y011616D01*
X032577Y011801D01*
X032638Y011863D01*
X032762Y011863D01*
X032945Y011924D02*
X032945Y011801D01*
X033007Y011739D01*
X033007Y011863D01*
X033130Y011863D01*
X033130Y011739D01*
X033007Y011739D01*
X032945Y011677D02*
X033007Y011616D01*
X033130Y011616D01*
X033192Y011677D01*
X033192Y011924D01*
X033130Y011986D01*
X033007Y011986D01*
X032945Y011924D01*
X033313Y011863D02*
X033313Y011554D01*
X033375Y011492D01*
X033437Y011492D01*
X033498Y011616D02*
X033313Y011616D01*
X033498Y011616D02*
X033560Y011677D01*
X033560Y011863D01*
X033682Y011801D02*
X033682Y011616D01*
X033682Y011801D02*
X033743Y011863D01*
X033867Y011863D01*
X033928Y011801D01*
X034050Y011801D02*
X034050Y011677D01*
X034112Y011616D01*
X034297Y011616D01*
X034297Y011492D02*
X034297Y011863D01*
X034112Y011863D01*
X034050Y011801D01*
X033928Y011986D02*
X033928Y011616D01*
X034418Y011677D02*
X034418Y011801D01*
X034480Y011863D01*
X034603Y011863D01*
X034665Y011801D01*
X034665Y011677D01*
X034603Y011616D01*
X034480Y011616D01*
X034418Y011677D01*
X034787Y011863D02*
X034849Y011863D01*
X034972Y011739D01*
X034972Y011616D02*
X034972Y011863D01*
X035094Y011863D02*
X035217Y011863D01*
X035156Y011924D02*
X035156Y011677D01*
X035094Y011616D01*
X035339Y011616D02*
X035524Y011616D01*
X035586Y011677D01*
X035524Y011739D01*
X035339Y011739D01*
X035339Y011801D02*
X035339Y011616D01*
X035339Y011801D02*
X035401Y011863D01*
X035524Y011863D01*
X035586Y012366D02*
X035401Y012366D01*
X035339Y012427D01*
X035339Y012674D01*
X035401Y012736D01*
X035586Y012736D01*
X035586Y012366D01*
X035217Y012427D02*
X035156Y012489D01*
X034971Y012489D01*
X034971Y012551D02*
X034971Y012366D01*
X035156Y012366D01*
X035217Y012427D01*
X035156Y012613D02*
X035032Y012613D01*
X034971Y012551D01*
X034849Y012613D02*
X034664Y012613D01*
X034602Y012551D01*
X034602Y012366D01*
X034481Y012366D02*
X034357Y012366D01*
X034419Y012366D02*
X034419Y012613D01*
X034481Y012613D01*
X034419Y012736D02*
X034419Y012798D01*
X034174Y012613D02*
X034050Y012613D01*
X033989Y012551D01*
X033989Y012489D01*
X034235Y012489D01*
X034235Y012427D02*
X034235Y012551D01*
X034174Y012613D01*
X034235Y012427D02*
X034174Y012366D01*
X034050Y012366D01*
X033867Y012366D02*
X033744Y012366D01*
X033805Y012366D02*
X033805Y012736D01*
X033867Y012736D01*
X033253Y012736D02*
X033253Y012366D01*
X033253Y012551D02*
X033006Y012551D01*
X032885Y012427D02*
X032823Y012489D01*
X032638Y012489D01*
X032638Y012551D02*
X032638Y012366D01*
X032823Y012366D01*
X032885Y012427D01*
X033006Y012366D02*
X033006Y012736D01*
X032823Y012613D02*
X032700Y012613D01*
X032638Y012551D01*
X032517Y012613D02*
X032517Y012366D01*
X032517Y012489D02*
X032393Y012613D01*
X032331Y012613D01*
X032210Y012613D02*
X032148Y012613D01*
X032086Y012551D01*
X032025Y012613D01*
X031963Y012551D01*
X031963Y012366D01*
X031841Y012366D02*
X031656Y012366D01*
X031595Y012427D01*
X031656Y012489D01*
X031780Y012489D01*
X031841Y012551D01*
X031780Y012613D01*
X031595Y012613D01*
X031473Y012613D02*
X031473Y012427D01*
X031411Y012366D01*
X031350Y012427D01*
X031288Y012366D01*
X031226Y012427D01*
X031226Y012613D01*
X031105Y012551D02*
X031043Y012613D01*
X030920Y012613D01*
X030858Y012551D01*
X030858Y012427D01*
X030920Y012366D01*
X031043Y012366D01*
X031105Y012427D01*
X031105Y012551D01*
X030736Y012489D02*
X030613Y012613D01*
X030551Y012613D01*
X030430Y012613D02*
X030306Y012613D01*
X030368Y012674D02*
X030368Y012427D01*
X030306Y012366D01*
X030184Y012366D02*
X030184Y012736D01*
X030122Y012613D02*
X029999Y012613D01*
X029937Y012551D01*
X029937Y012366D01*
X030184Y012551D02*
X030122Y012613D01*
X030736Y012613D02*
X030736Y012366D01*
X031534Y011986D02*
X031596Y011924D01*
X031841Y011986D02*
X031841Y012048D01*
X032455Y011863D02*
X032455Y011616D01*
X032210Y012366D02*
X032210Y012613D01*
X032086Y012551D02*
X032086Y012366D01*
X032024Y013366D02*
X032210Y013366D01*
X032271Y013427D01*
X032210Y013489D01*
X032024Y013489D01*
X032024Y013551D02*
X032024Y013366D01*
X031903Y013427D02*
X031841Y013366D01*
X031656Y013366D01*
X031473Y013427D02*
X031411Y013366D01*
X031473Y013427D02*
X031473Y013674D01*
X031535Y013613D02*
X031411Y013613D01*
X031289Y013551D02*
X031289Y013427D01*
X031227Y013366D01*
X031104Y013366D01*
X031042Y013427D01*
X031042Y013551D01*
X031104Y013613D01*
X031227Y013613D01*
X031289Y013551D01*
X031656Y013613D02*
X031841Y013613D01*
X031903Y013551D01*
X031903Y013427D01*
X032024Y013551D02*
X032086Y013613D01*
X032210Y013613D01*
X032393Y013551D02*
X032517Y013551D01*
X032455Y013674D02*
X032455Y013366D01*
X032639Y013366D02*
X032762Y013366D01*
X032701Y013366D02*
X032701Y013613D01*
X032762Y013613D01*
X032884Y013613D02*
X033008Y013613D01*
X032946Y013674D02*
X032946Y013427D01*
X032884Y013366D01*
X033129Y013613D02*
X033191Y013613D01*
X033315Y013489D01*
X033436Y013489D02*
X033621Y013489D01*
X033683Y013427D01*
X033621Y013366D01*
X033436Y013366D01*
X033436Y013551D01*
X033498Y013613D01*
X033621Y013613D01*
X033804Y013674D02*
X033804Y013551D01*
X033866Y013489D01*
X033866Y013613D01*
X033990Y013613D01*
X033990Y013489D01*
X033866Y013489D01*
X033804Y013427D02*
X033866Y013366D01*
X033990Y013366D01*
X034051Y013427D01*
X034051Y013674D01*
X033990Y013736D01*
X033866Y013736D01*
X033804Y013674D01*
X034173Y013613D02*
X034297Y013613D01*
X034235Y013674D02*
X034235Y013427D01*
X034173Y013366D01*
X034419Y013366D02*
X034481Y013427D01*
X034481Y013674D01*
X034542Y013613D02*
X034419Y013613D01*
X034664Y013551D02*
X034664Y013489D01*
X034911Y013489D01*
X034911Y013427D02*
X034911Y013551D01*
X034849Y013613D01*
X034725Y013613D01*
X034664Y013551D01*
X034725Y013366D02*
X034849Y013366D01*
X034911Y013427D01*
X035032Y013613D02*
X035094Y013613D01*
X035217Y013489D01*
X035217Y013366D02*
X035217Y013613D01*
X035339Y013551D02*
X035401Y013613D01*
X035586Y013613D01*
X035586Y013736D02*
X035586Y013366D01*
X035401Y013366D01*
X035339Y013427D01*
X035339Y013551D01*
X035401Y014116D02*
X035586Y014116D01*
X035586Y014486D01*
X035401Y014486D01*
X035339Y014424D01*
X035339Y014363D01*
X035401Y014301D01*
X035586Y014301D01*
X035401Y014301D02*
X035339Y014239D01*
X035339Y014177D01*
X035401Y014116D01*
X035217Y014116D02*
X035217Y014363D01*
X035094Y014363D02*
X035032Y014363D01*
X035094Y014363D02*
X035217Y014239D01*
X034911Y014239D02*
X034664Y014239D01*
X034664Y014301D01*
X034725Y014363D01*
X034849Y014363D01*
X034911Y014301D01*
X034911Y014177D01*
X034849Y014116D01*
X034725Y014116D01*
X034481Y014177D02*
X034481Y014424D01*
X034542Y014363D02*
X034419Y014363D01*
X034297Y014363D02*
X034173Y014363D01*
X034235Y014424D02*
X034235Y014177D01*
X034173Y014116D01*
X034419Y014116D02*
X034481Y014177D01*
X033683Y014116D02*
X033498Y014116D01*
X033436Y014177D01*
X033436Y014424D01*
X033498Y014486D01*
X033683Y014486D01*
X033683Y014116D01*
X033315Y014177D02*
X033253Y014116D01*
X033129Y014116D01*
X033068Y014177D01*
X033068Y014301D01*
X033129Y014363D01*
X033253Y014363D01*
X033315Y014301D01*
X033315Y014177D01*
X032946Y014177D02*
X032885Y014116D01*
X032823Y014177D01*
X032761Y014116D01*
X032699Y014177D01*
X032699Y014363D01*
X032578Y014363D02*
X032393Y014363D01*
X032331Y014301D01*
X032331Y014116D01*
X032210Y014116D02*
X032086Y014116D01*
X032148Y014116D02*
X032148Y014363D01*
X032210Y014363D01*
X032148Y014486D02*
X032148Y014548D01*
X031964Y014363D02*
X031779Y014363D01*
X031717Y014301D01*
X031717Y014116D01*
X031596Y014177D02*
X031534Y014116D01*
X031349Y014116D01*
X031349Y014054D02*
X031349Y014363D01*
X031534Y014363D01*
X031596Y014301D01*
X031596Y014177D01*
X031472Y013992D02*
X031411Y013992D01*
X031349Y014054D01*
X030921Y013613D02*
X030921Y013366D01*
X030921Y013489D02*
X030797Y013613D01*
X030736Y013613D01*
X030614Y013613D02*
X030614Y013427D01*
X030552Y013366D01*
X030367Y013366D01*
X030367Y013304D02*
X030429Y013242D01*
X030490Y013242D01*
X030367Y013304D02*
X030367Y013613D01*
X030246Y013427D02*
X030184Y013427D01*
X030184Y013366D01*
X030246Y013366D01*
X030246Y013427D01*
X030061Y013427D02*
X030000Y013366D01*
X029876Y013366D01*
X029815Y013427D01*
X029815Y013551D01*
X029876Y013613D01*
X030000Y013613D01*
X030061Y013551D01*
X030061Y013427D01*
X029693Y013366D02*
X029693Y013613D01*
X029570Y013613D02*
X029508Y013613D01*
X029570Y013613D02*
X029693Y013489D01*
X029386Y013427D02*
X029325Y013366D01*
X029139Y013366D01*
X029139Y013304D02*
X029139Y013613D01*
X029325Y013613D01*
X029386Y013551D01*
X029386Y013427D01*
X029263Y013242D02*
X029201Y013242D01*
X029139Y013304D01*
X029018Y013366D02*
X028956Y013366D01*
X028956Y013427D01*
X029018Y013427D01*
X029018Y013366D01*
X028834Y013427D02*
X028772Y013489D01*
X028587Y013489D01*
X028587Y013551D02*
X028587Y013366D01*
X028772Y013366D01*
X028834Y013427D01*
X028772Y013613D02*
X028649Y013613D01*
X028587Y013551D01*
X028466Y013613D02*
X028466Y013427D01*
X028404Y013366D01*
X028219Y013366D01*
X028219Y013613D01*
X028280Y011863D02*
X028465Y011863D01*
X028527Y011801D01*
X028527Y011677D01*
X028465Y011616D01*
X028280Y011616D01*
X028280Y011554D02*
X028280Y011863D01*
X028159Y011677D02*
X028097Y011677D01*
X028097Y011616D01*
X028159Y011616D01*
X028159Y011677D01*
X028280Y011554D02*
X028342Y011492D01*
X028403Y011492D01*
X028834Y011616D02*
X028834Y011863D01*
X028710Y011863D02*
X028649Y011863D01*
X028710Y011863D02*
X028834Y011739D01*
X028955Y011677D02*
X028955Y011801D01*
X029017Y011863D01*
X029140Y011863D01*
X029202Y011801D01*
X029202Y011677D01*
X029140Y011616D01*
X029017Y011616D01*
X028955Y011677D01*
X027974Y011677D02*
X027913Y011739D01*
X027728Y011739D01*
X027728Y011801D02*
X027728Y011616D01*
X027913Y011616D01*
X027974Y011677D01*
X027913Y011863D02*
X027789Y011863D01*
X027728Y011801D01*
X027606Y011863D02*
X027606Y011677D01*
X027544Y011616D01*
X027359Y011616D01*
X027359Y011863D01*
X030858Y015116D02*
X031105Y015116D01*
X031226Y015116D02*
X031473Y015116D01*
X031350Y015116D02*
X031350Y015486D01*
X031473Y015363D01*
X031595Y015424D02*
X031595Y015177D01*
X031656Y015116D01*
X031780Y015116D01*
X031841Y015177D01*
X031595Y015424D01*
X031656Y015486D01*
X031780Y015486D01*
X031841Y015424D01*
X031841Y015177D01*
X031963Y015116D02*
X032210Y015116D01*
X031963Y015363D01*
X031963Y015424D01*
X032025Y015486D01*
X032148Y015486D01*
X032210Y015424D01*
X032700Y015363D02*
X032824Y015363D01*
X032762Y015424D02*
X032762Y015177D01*
X032700Y015116D01*
X032945Y015116D02*
X032945Y015301D01*
X033007Y015363D01*
X033130Y015363D01*
X033192Y015301D01*
X033313Y015363D02*
X033498Y015363D01*
X033560Y015301D01*
X033560Y015177D01*
X033498Y015116D01*
X033313Y015116D01*
X033313Y015054D02*
X033313Y015363D01*
X033192Y015486D02*
X033192Y015116D01*
X033313Y015054D02*
X033375Y014992D01*
X033437Y014992D01*
X033682Y015116D02*
X033806Y015116D01*
X033744Y015116D02*
X033744Y015363D01*
X033806Y015363D01*
X033927Y015363D02*
X033989Y015363D01*
X034113Y015239D01*
X034113Y015116D02*
X034113Y015363D01*
X034234Y015363D02*
X034234Y015054D01*
X034296Y014992D01*
X034357Y014992D01*
X034419Y015116D02*
X034234Y015116D01*
X034419Y015116D02*
X034481Y015177D01*
X034481Y015363D01*
X034602Y015301D02*
X034602Y015177D01*
X034664Y015116D01*
X034849Y015116D01*
X034849Y014992D02*
X034849Y015363D01*
X034664Y015363D01*
X034602Y015301D01*
X034971Y015301D02*
X035032Y015363D01*
X035156Y015363D01*
X035217Y015301D01*
X035217Y015177D01*
X035156Y015116D01*
X035032Y015116D01*
X034971Y015177D01*
X034971Y015301D01*
X035339Y015424D02*
X035401Y015486D01*
X035524Y015486D01*
X035586Y015424D01*
X035586Y015177D01*
X035524Y015116D01*
X035401Y015116D01*
X035339Y015177D01*
X033744Y015486D02*
X033744Y015548D01*
X032946Y014363D02*
X032946Y014177D01*
X032578Y014116D02*
X032578Y014363D01*
X032701Y013798D02*
X032701Y013736D01*
X032455Y013674D02*
X032393Y013736D01*
X031964Y014116D02*
X031964Y014363D01*
X030981Y015116D02*
X030981Y015486D01*
X031105Y015363D01*
X033315Y013613D02*
X033315Y013366D01*
X034849Y012613D02*
X034849Y012366D01*
X035398Y017769D02*
X035398Y018059D01*
X035253Y018059D01*
X035205Y018011D01*
X035205Y017914D01*
X035253Y017866D01*
X035398Y017866D01*
X035498Y017866D02*
X035546Y017914D01*
X035546Y018108D01*
X035498Y018059D02*
X035595Y018059D01*
X035694Y018059D02*
X035791Y018059D01*
X035743Y018108D02*
X035743Y017914D01*
X035694Y017866D01*
X035892Y017866D02*
X035892Y018011D01*
X035941Y018059D01*
X036037Y018059D01*
X036086Y018011D01*
X036086Y018156D02*
X036086Y017866D01*
X035104Y017866D02*
X035104Y017914D01*
X035055Y017914D01*
X035055Y017866D01*
X035104Y017866D01*
X035104Y018011D02*
X035104Y018059D01*
X035055Y018059D01*
X035055Y018011D01*
X035104Y018011D01*
X034956Y017866D02*
X034763Y018156D01*
X034468Y018156D02*
X034662Y017866D01*
X034367Y017914D02*
X034319Y017963D01*
X034174Y017963D01*
X034174Y018011D02*
X034174Y017866D01*
X034319Y017866D01*
X034367Y017914D01*
X034319Y018059D02*
X034222Y018059D01*
X034174Y018011D01*
X034072Y018059D02*
X034072Y017866D01*
X034072Y017963D02*
X033976Y018059D01*
X033927Y018059D01*
X033827Y018059D02*
X033730Y018059D01*
X033779Y018108D02*
X033779Y017914D01*
X033730Y017866D01*
X033630Y017866D02*
X033534Y017866D01*
X033582Y017866D02*
X033582Y018059D01*
X033630Y018059D01*
X033582Y018156D02*
X033582Y018204D01*
X033386Y018108D02*
X033337Y018156D01*
X033386Y018108D02*
X033386Y017866D01*
X033434Y018011D02*
X033337Y018011D01*
X033238Y017914D02*
X033189Y017866D01*
X033044Y017866D01*
X033044Y018011D01*
X033093Y018059D01*
X033189Y018059D01*
X033189Y017963D02*
X033044Y017963D01*
X032943Y018011D02*
X032943Y017914D01*
X032895Y017866D01*
X032750Y017866D01*
X032600Y017914D02*
X032552Y017866D01*
X032600Y017914D02*
X032600Y018108D01*
X032648Y018059D02*
X032552Y018059D01*
X032452Y018011D02*
X032452Y017914D01*
X032404Y017866D01*
X032307Y017866D01*
X032258Y017914D01*
X032258Y018011D01*
X032307Y018059D01*
X032404Y018059D01*
X032452Y018011D01*
X032157Y018059D02*
X032157Y017866D01*
X032157Y017963D02*
X032061Y018059D01*
X032012Y018059D01*
X031912Y018059D02*
X031912Y017914D01*
X031863Y017866D01*
X031718Y017866D01*
X031718Y017817D02*
X031767Y017769D01*
X031815Y017769D01*
X031718Y017817D02*
X031718Y018059D01*
X031617Y017914D02*
X031569Y017914D01*
X031569Y017866D01*
X031617Y017866D01*
X031617Y017914D01*
X031470Y017914D02*
X031421Y017866D01*
X031325Y017866D01*
X031276Y017914D01*
X031276Y018011D01*
X031325Y018059D01*
X031421Y018059D01*
X031470Y018011D01*
X031470Y017914D01*
X031175Y017866D02*
X031175Y018059D01*
X031175Y017963D02*
X031078Y018059D01*
X031030Y018059D01*
X030930Y018011D02*
X030930Y017914D01*
X030881Y017866D01*
X030736Y017866D01*
X030736Y017817D02*
X030736Y018059D01*
X030881Y018059D01*
X030930Y018011D01*
X030833Y017769D02*
X030785Y017769D01*
X030736Y017817D01*
X030635Y017866D02*
X030587Y017866D01*
X030587Y017914D01*
X030635Y017914D01*
X030635Y017866D01*
X030488Y017914D02*
X030439Y017963D01*
X030294Y017963D01*
X030294Y018011D02*
X030294Y017866D01*
X030439Y017866D01*
X030488Y017914D01*
X030439Y018059D02*
X030343Y018059D01*
X030294Y018011D01*
X030193Y018059D02*
X030193Y017914D01*
X030145Y017866D01*
X030000Y017866D01*
X030000Y018059D01*
X029898Y017866D02*
X029705Y018156D01*
X029604Y018156D02*
X029604Y017866D01*
X029604Y017963D02*
X029459Y017866D01*
X029358Y017866D02*
X029261Y017866D01*
X029310Y017866D02*
X029310Y018059D01*
X029358Y018059D01*
X029459Y018059D02*
X029604Y017963D01*
X029310Y018156D02*
X029310Y018204D01*
X029162Y018059D02*
X029065Y018059D01*
X029113Y018108D02*
X029113Y017914D01*
X029065Y017866D01*
X028965Y017866D02*
X028820Y017866D01*
X028772Y017914D01*
X028820Y017963D01*
X028917Y017963D01*
X028965Y018011D01*
X028917Y018059D01*
X028772Y018059D01*
X028671Y017866D02*
X028477Y018156D01*
X028376Y018011D02*
X028376Y017914D01*
X028328Y017866D01*
X028183Y017866D01*
X028081Y017914D02*
X028033Y017866D01*
X027936Y017866D01*
X027888Y017914D01*
X027888Y018011D01*
X027936Y018059D01*
X028033Y018059D01*
X028081Y018011D01*
X028081Y017914D01*
X028183Y018059D02*
X028328Y018059D01*
X028376Y018011D01*
X027787Y018059D02*
X027738Y018059D01*
X027738Y017866D01*
X027690Y017866D02*
X027787Y017866D01*
X027590Y017866D02*
X027494Y017866D01*
X027542Y017866D02*
X027542Y018156D01*
X027590Y018156D01*
X027738Y018156D02*
X027738Y018204D01*
X027394Y018011D02*
X027346Y018059D01*
X027201Y018059D01*
X027201Y018156D02*
X027201Y017866D01*
X027346Y017866D01*
X027394Y017914D01*
X027394Y018011D01*
X027099Y018059D02*
X027099Y017866D01*
X027099Y017963D02*
X027003Y018059D01*
X026954Y018059D01*
X026854Y018059D02*
X026805Y018059D01*
X026805Y017866D01*
X026757Y017866D02*
X026854Y017866D01*
X026657Y018059D02*
X026561Y017866D01*
X026464Y018059D01*
X026363Y018011D02*
X026314Y018059D01*
X026218Y018059D01*
X026169Y018011D01*
X026169Y017963D01*
X026363Y017963D01*
X026363Y018011D02*
X026363Y017914D01*
X026314Y017866D01*
X026218Y017866D01*
X026068Y017866D02*
X026068Y018059D01*
X026068Y017963D02*
X025971Y018059D01*
X025923Y018059D01*
X026805Y018156D02*
X026805Y018204D01*
X028428Y018866D02*
X028675Y018866D01*
X028675Y019236D01*
X028797Y019174D02*
X028858Y019236D01*
X028982Y019236D01*
X029043Y019174D01*
X029043Y018927D01*
X028982Y018866D01*
X028858Y018866D01*
X028797Y018927D01*
X029165Y018866D02*
X029165Y019236D01*
X029412Y019236D02*
X029165Y018866D01*
X029412Y018866D02*
X029412Y019236D01*
X029533Y019236D02*
X029780Y018866D01*
X029902Y018866D02*
X030087Y018866D01*
X030148Y018927D01*
X030148Y019051D01*
X030087Y019113D01*
X029902Y019113D01*
X029902Y018804D01*
X029963Y018742D01*
X030025Y018742D01*
X030270Y019113D02*
X030332Y019113D01*
X030455Y018989D01*
X030455Y018866D02*
X030455Y019113D01*
X030577Y019051D02*
X030638Y019113D01*
X030762Y019113D01*
X030824Y019051D01*
X030824Y018927D01*
X030762Y018866D01*
X030638Y018866D01*
X030577Y018927D01*
X030577Y019051D01*
X030946Y018927D02*
X030946Y018866D01*
X031008Y018866D01*
X031008Y018927D01*
X030946Y018927D01*
X031129Y019113D02*
X031191Y019113D01*
X031315Y018989D01*
X031315Y018866D02*
X031315Y019113D01*
X031436Y019051D02*
X031436Y018927D01*
X031498Y018866D01*
X031683Y018866D01*
X031804Y018866D02*
X031804Y019051D01*
X031866Y019113D01*
X031990Y019113D01*
X031990Y018989D02*
X031804Y018989D01*
X031804Y018866D02*
X031990Y018866D01*
X032051Y018927D01*
X031990Y018989D01*
X032173Y018866D02*
X032235Y018927D01*
X032235Y019174D01*
X032297Y019113D02*
X032173Y019113D01*
X032419Y018927D02*
X032419Y018866D01*
X032481Y018866D01*
X032481Y018927D01*
X032419Y018927D01*
X032602Y018927D02*
X032664Y018866D01*
X032726Y018927D01*
X032787Y018866D01*
X032849Y018927D01*
X032849Y019113D01*
X032971Y019113D02*
X032971Y018927D01*
X033032Y018866D01*
X033094Y018927D01*
X033156Y018866D01*
X033217Y018927D01*
X033217Y019113D01*
X033339Y019113D02*
X033339Y018927D01*
X033401Y018866D01*
X033462Y018927D01*
X033524Y018866D01*
X033586Y018927D01*
X033586Y019113D01*
X032602Y019113D02*
X032602Y018927D01*
X031683Y018742D02*
X031683Y019113D01*
X031498Y019113D01*
X031436Y019051D01*
X031410Y019866D02*
X031596Y019866D01*
X031657Y019927D01*
X031657Y020051D01*
X031596Y020113D01*
X031410Y020113D01*
X031410Y020236D02*
X031410Y019866D01*
X031289Y019927D02*
X031289Y020051D01*
X031227Y020113D01*
X031104Y020113D01*
X031042Y020051D01*
X031042Y019989D01*
X031289Y019989D01*
X031289Y019927D02*
X031227Y019866D01*
X031104Y019866D01*
X030921Y019866D02*
X030921Y020113D01*
X030921Y019989D02*
X030797Y020113D01*
X030735Y020113D01*
X030245Y020113D02*
X030122Y020113D01*
X030184Y020174D02*
X030184Y019927D01*
X030122Y019866D01*
X030000Y019866D02*
X030000Y020236D01*
X029938Y020113D02*
X029815Y020113D01*
X029753Y020051D01*
X029753Y019866D01*
X029632Y019927D02*
X029570Y019866D01*
X029446Y019866D01*
X029385Y019989D02*
X029632Y019989D01*
X029632Y019927D02*
X029632Y020051D01*
X029570Y020113D01*
X029446Y020113D01*
X029385Y020051D01*
X029385Y019989D01*
X028895Y020236D02*
X028648Y020236D01*
X028772Y020236D02*
X028772Y019866D01*
X028527Y019866D02*
X028527Y020113D01*
X028403Y020236D01*
X028280Y020113D01*
X028280Y019866D01*
X028158Y019866D02*
X028158Y020236D01*
X027973Y020236D01*
X027911Y020174D01*
X027911Y020051D01*
X027973Y019989D01*
X028158Y019989D01*
X028280Y020051D02*
X028527Y020051D01*
X027790Y019989D02*
X027605Y019989D01*
X027543Y020051D01*
X027543Y020174D01*
X027605Y020236D01*
X027790Y020236D01*
X027790Y019866D01*
X027667Y019989D02*
X027543Y019866D01*
X027053Y019866D02*
X027053Y020236D01*
X026807Y019866D01*
X026807Y020236D01*
X026685Y020174D02*
X026685Y019927D01*
X026623Y019866D01*
X026500Y019866D01*
X026438Y019927D01*
X026317Y019866D02*
X026070Y019866D01*
X026317Y019866D02*
X026317Y020236D01*
X026438Y020174D02*
X026500Y020236D01*
X026623Y020236D01*
X026685Y020174D01*
X029938Y020113D02*
X030000Y020051D01*
X031779Y020051D02*
X031779Y019866D01*
X031779Y020051D02*
X031840Y020113D01*
X032026Y020113D01*
X032026Y019866D01*
X032147Y019866D02*
X032147Y020113D01*
X032394Y020113D02*
X032394Y019927D01*
X032332Y019866D01*
X032147Y019866D01*
X032884Y019866D02*
X032884Y020236D01*
X032884Y020113D02*
X033069Y020113D01*
X033130Y020051D01*
X033130Y019927D01*
X033069Y019866D01*
X032884Y019866D01*
X033252Y019989D02*
X033499Y019989D01*
X033499Y019927D02*
X033499Y020051D01*
X033437Y020113D01*
X033314Y020113D01*
X033252Y020051D01*
X033252Y019989D01*
X033314Y019866D02*
X033437Y019866D01*
X033499Y019927D01*
X033620Y019927D02*
X033682Y019989D01*
X033805Y019989D01*
X033867Y020051D01*
X033805Y020113D01*
X033620Y020113D01*
X033620Y019927D02*
X033682Y019866D01*
X033867Y019866D01*
X033989Y019866D02*
X033989Y020051D01*
X034050Y020113D01*
X034235Y020113D01*
X034235Y019866D01*
X034357Y019989D02*
X034604Y019989D01*
X034604Y019927D02*
X034604Y020051D01*
X034542Y020113D01*
X034419Y020113D01*
X034357Y020051D01*
X034357Y019989D01*
X034419Y019866D02*
X034542Y019866D01*
X034604Y019927D01*
X034725Y019866D02*
X034910Y019866D01*
X034972Y019927D01*
X034972Y020051D01*
X034910Y020113D01*
X034725Y020113D01*
X035156Y020113D02*
X035156Y019866D01*
X035217Y019866D02*
X035094Y019866D01*
X035339Y019866D02*
X035586Y019866D01*
X035586Y020236D01*
X035217Y020113D02*
X035156Y020113D01*
X035156Y020236D02*
X035156Y020298D01*
X033189Y017963D02*
X033238Y017914D01*
X032943Y018011D02*
X032895Y018059D01*
X032750Y018059D01*
X022019Y011336D02*
X021895Y011336D01*
X022019Y011336D02*
X022019Y010966D01*
X021895Y010966D01*
X021773Y011027D02*
X021712Y010966D01*
X021650Y010966D01*
X021588Y011027D01*
X021588Y011336D01*
X021527Y011336D02*
X021650Y011336D01*
X021405Y011336D02*
X021282Y011336D01*
X021282Y010966D01*
X021405Y010966D01*
X020791Y011027D02*
X020791Y011274D01*
X020730Y011336D01*
X020606Y011336D01*
X020544Y011274D01*
X020544Y011027D01*
X020606Y010966D01*
X020730Y010966D01*
X020791Y011027D01*
X020423Y010966D02*
X020238Y010966D01*
X020176Y011027D01*
X020176Y011151D01*
X020238Y011213D01*
X020423Y011213D01*
X020423Y010842D01*
X020055Y011213D02*
X019931Y011213D01*
X019993Y011274D02*
X019993Y011027D01*
X019931Y010966D01*
X019809Y011027D02*
X019747Y010966D01*
X019624Y010966D01*
X019562Y011027D01*
X019562Y011151D01*
X019624Y011213D01*
X019747Y011213D01*
X019809Y011151D01*
X019809Y011027D01*
X019073Y010966D02*
X018826Y010966D01*
X018704Y010966D02*
X018704Y011213D01*
X018519Y011213D01*
X018457Y011151D01*
X018457Y010966D01*
X018826Y011336D02*
X019073Y011336D01*
X019073Y010966D01*
X019073Y011151D02*
X018949Y011151D01*
X019256Y010336D02*
X019194Y010274D01*
X019194Y010027D01*
X019256Y009966D01*
X019379Y009966D01*
X019441Y010027D01*
X019441Y010274D01*
X019379Y010336D01*
X019256Y010336D01*
X019073Y010151D02*
X019011Y010213D01*
X018826Y010213D01*
X018704Y010151D02*
X018704Y010027D01*
X018643Y009966D01*
X018457Y009966D01*
X018457Y010213D02*
X018643Y010213D01*
X018704Y010151D01*
X018826Y010027D02*
X018887Y010089D01*
X019011Y010089D01*
X019073Y010151D01*
X019073Y009966D02*
X018887Y009966D01*
X018826Y010027D01*
X019076Y009336D02*
X019200Y009336D01*
X019138Y009336D02*
X019138Y008966D01*
X019200Y008966D02*
X019076Y008966D01*
X018954Y008966D02*
X018954Y009213D01*
X018769Y009213D01*
X018707Y009151D01*
X018707Y008966D01*
X019689Y008966D02*
X019875Y008966D01*
X019936Y009027D01*
X019936Y009151D01*
X019875Y009213D01*
X019689Y009213D01*
X020058Y009213D02*
X020243Y009213D01*
X020305Y009151D01*
X020243Y009089D01*
X020119Y009089D01*
X020058Y009027D01*
X020119Y008966D01*
X020305Y008966D01*
X020426Y009027D02*
X020426Y009274D01*
X020488Y009336D01*
X020611Y009336D01*
X020673Y009274D01*
X020673Y009027D01*
X020611Y008966D01*
X020488Y008966D01*
X020426Y009027D01*
X021163Y008966D02*
X021225Y009027D01*
X021225Y009274D01*
X021287Y009213D02*
X021163Y009213D01*
X021408Y009213D02*
X021655Y008966D01*
X021777Y008966D02*
X022023Y008966D01*
X022023Y009336D01*
X021777Y009336D01*
X021655Y009213D02*
X021408Y008966D01*
X021900Y009151D02*
X022023Y009151D01*
X021896Y009966D02*
X021896Y010336D01*
X021773Y010336D01*
X021527Y010336D02*
X021404Y010336D01*
X021465Y010336D02*
X021465Y010027D01*
X021527Y009966D01*
X021589Y009966D01*
X021651Y010027D01*
X021773Y009966D02*
X021896Y009966D01*
X021282Y009966D02*
X021159Y009966D01*
X021159Y010336D01*
X021282Y010336D01*
X020669Y010336D02*
X020545Y010336D01*
X020607Y010336D02*
X020607Y009966D01*
X020669Y009966D02*
X020545Y009966D01*
X020423Y009966D02*
X020423Y010213D01*
X020238Y010213D01*
X020176Y010151D01*
X020176Y009966D01*
X019993Y010027D02*
X019993Y010274D01*
X020055Y010213D02*
X019931Y010213D01*
X019993Y010027D02*
X019931Y009966D01*
D14*
X022734Y009947D02*
X022811Y009871D01*
X022964Y009871D01*
X023041Y009947D01*
X023041Y010254D01*
X022964Y010331D01*
X022811Y010331D01*
X022734Y010254D01*
X022811Y010871D02*
X022734Y010947D01*
X022734Y011254D01*
X022811Y011331D01*
X023041Y011331D01*
X023041Y010871D01*
X022811Y010871D01*
X023734Y010871D02*
X023734Y011178D01*
X023888Y011331D01*
X024041Y011178D01*
X024041Y010871D01*
X024041Y011101D02*
X023734Y011101D01*
X023742Y011871D02*
X023742Y012331D01*
X023895Y012178D01*
X024049Y012331D01*
X024049Y011871D01*
X023588Y011947D02*
X023588Y012101D01*
X023511Y012178D01*
X023358Y012178D01*
X023281Y012101D01*
X023281Y011947D01*
X023358Y011871D01*
X023511Y011871D01*
X023588Y011947D01*
X023128Y011947D02*
X023128Y012101D01*
X023051Y012178D01*
X022821Y012178D01*
X022821Y012331D02*
X022821Y011871D01*
X023051Y011871D01*
X023128Y011947D01*
X022667Y011947D02*
X022667Y012101D01*
X022591Y012178D01*
X022437Y012178D01*
X022361Y012101D01*
X022361Y012024D01*
X022667Y012024D01*
X022667Y011947D02*
X022591Y011871D01*
X022437Y011871D01*
X021747Y011871D02*
X021747Y012331D01*
X021517Y012331D01*
X021440Y012254D01*
X021440Y012101D01*
X021517Y012024D01*
X021747Y012024D01*
X021286Y011871D02*
X021133Y011871D01*
X021210Y011871D02*
X021210Y012178D01*
X021286Y012178D01*
X021210Y012331D02*
X021210Y012408D01*
X020980Y012178D02*
X020749Y012178D01*
X020673Y012101D01*
X020673Y011871D01*
X020980Y011871D02*
X020980Y012178D01*
X020059Y012331D02*
X020059Y011871D01*
X020059Y012024D02*
X019829Y012024D01*
X019752Y012101D01*
X019752Y012254D01*
X019829Y012331D01*
X020059Y012331D01*
X019905Y012024D02*
X019752Y011871D01*
X019598Y011947D02*
X019598Y012101D01*
X019522Y012178D01*
X019368Y012178D01*
X019292Y012101D01*
X019292Y012024D01*
X019598Y012024D01*
X019598Y011947D02*
X019522Y011871D01*
X019368Y011871D01*
X019061Y011871D02*
X019061Y012254D01*
X018985Y012331D01*
X018985Y012101D02*
X019138Y012101D01*
X022734Y009254D02*
X022811Y009331D01*
X023041Y009331D01*
X023041Y008871D01*
X022811Y008871D01*
X022734Y008947D01*
X022734Y009024D01*
X022811Y009101D01*
X023041Y009101D01*
X022811Y009101D02*
X022734Y009178D01*
X022734Y009254D01*
X023734Y009178D02*
X023734Y008871D01*
X023734Y009101D02*
X024041Y009101D01*
X024041Y009178D02*
X023888Y009331D01*
X023734Y009178D01*
X024041Y009178D02*
X024041Y008871D01*
X024041Y009871D02*
X024041Y010178D01*
X023888Y010331D01*
X023734Y010178D01*
X023734Y009871D01*
X023734Y010101D02*
X024041Y010101D01*
D15*
X018101Y008601D02*
X018101Y012601D01*
X024351Y012601D01*
X024351Y008601D01*
X023351Y008601D01*
X023351Y011601D01*
X024351Y011601D01*
X023351Y011601D02*
X022351Y011601D01*
X022351Y008601D01*
X018101Y008601D01*
X018101Y009601D02*
X024351Y009601D01*
X024351Y010601D02*
X018101Y010601D01*
X018101Y011601D02*
X022351Y011601D01*
X022351Y008601D02*
X023351Y008601D01*
M02*
